<svg width="1920" height="203" viewBox="0 0 1920 203" fill="none" xmlns="http://www.w3.org/2000/svg">
<path fill-rule="evenodd" clip-rule="evenodd" d="M0 115L80 96C160 77 320 38 480 67C640 96 800 192 960 202C1120 211 1280 134 1440 96C1600 58 1760 58 1840 58H1920V0H1840C1760 0 1600 0 1440 0C1280 0 1120 0 960 0C800 0 640 0 480 0C320 0 160 0 80 0H0V115Z" fill="url(#paint0_linear)"/>
<defs>
<linearGradient id="paint0_linear" x1="1939.2" y1="90.1956" x2="1320.46" y2="1236.62" gradientUnits="userSpaceOnUse">
<stop stop-color="#90C8FD"/>
<stop offset="0.729167" stop-color="#8782F7"/>
</linearGradient>
</defs>
</svg>
