<svg width="71" height="68" viewBox="0 0 71 68" fill="none" xmlns="http://www.w3.org/2000/svg">
<circle cx="36.4101" cy="34" r="34" fill="white"/>
<path d="M23.0768 22H31.0768C32.4913 22 33.8478 22.5619 34.848 23.5621C35.8482 24.5623 36.4101 25.9188 36.4101 27.3333V46C36.4101 44.9391 35.9887 43.9217 35.2385 43.1716C34.4884 42.4214 33.471 42 32.4101 42H23.0768V22Z" stroke="#DB3B3E" stroke-width="2" stroke-linecap="round" stroke-linejoin="round"/>
<path d="M49.7434 22H41.7434C40.3289 22 38.9724 22.5619 37.9722 23.5621C36.972 24.5623 36.4101 25.9188 36.4101 27.3333V46C36.4101 44.9391 36.8315 43.9217 37.5817 43.1716C38.3318 42.4214 39.3492 42 40.4101 42H49.7434V22Z" stroke="#DB3B3E" stroke-width="2" stroke-linecap="round" stroke-linejoin="round"/>
<path d="M27.0768 28H31.7434" stroke="#F27476" stroke-width="2" stroke-linecap="round"/>
</svg>
