<svg width="62" height="61" viewBox="0 0 62 61" fill="none" xmlns="http://www.w3.org/2000/svg">
<rect width="61" height="61" rx="30.5" fill="white"/>
<g clip-path="url(#clip0)">
<path d="M37.1136 31.2713V31.3962L37.2136 31.4712L42.9318 35.7613V43.3863L37.3637 43.3849L37.1136 43.3848V43.6349V43.6364C37.1136 45.1049 35.9231 46.2955 34.4545 46.2955H31.5455H31.2955V46.5455V47.75H28.8864V46.5455V46.2955H28.6364H25.7273C24.2587 46.2955 23.0682 45.1049 23.0682 43.6364V43.6349V43.3848L22.8181 43.3849L17.25 43.3863V35.7613L22.9682 31.4712L23.0682 31.3962V31.2713V26.1818C23.0682 23.9313 23.7519 21.433 24.9818 19.5038C26.2122 17.5741 27.9621 16.25 30.0909 16.25C32.2197 16.25 33.9697 17.5741 35.2 19.5038C36.4299 21.433 37.1136 23.9313 37.1136 26.1818V31.2713ZM25.4773 43.6364V43.8864H25.7273H28.6364H28.8864V43.6364V35.1591H31.2955V43.6364V43.8864H31.5455H34.4545H34.7045V43.6364V26.1818C34.7045 24.5407 34.1836 22.6806 33.3647 21.2267C32.9547 20.4989 32.4642 19.8623 31.9163 19.405C31.3683 18.9476 30.7494 18.6591 30.0909 18.6591C29.4324 18.6591 28.8135 18.9476 28.2655 19.405C27.7176 19.8623 27.2271 20.4989 26.8172 21.2267C25.9983 22.6806 25.4773 24.5407 25.4773 26.1818V43.6364ZM23.0682 34.9091V34.4091L22.6682 34.7091L19.7591 36.8909L19.6591 36.9659V37.0909V40.7273V40.9773H19.9091H22.8182H23.0682V40.7273V34.9091ZM37.5136 34.7091L37.1136 34.4091V34.9091V40.7273V40.9773H37.3636H40.2727H40.5227V40.7273V37.0909V36.9659L40.4227 36.8909L37.5136 34.7091ZM30.0909 24.9773C31.5595 24.9773 32.75 26.1678 32.75 27.6364C32.75 29.1049 31.5595 30.2955 30.0909 30.2955C28.6223 30.2955 27.4318 29.1049 27.4318 27.6364C27.4318 26.1678 28.6223 24.9773 30.0909 24.9773Z" fill="#DB3B3E" stroke="white" stroke-width="0.5"/>
</g>
<defs>
<clipPath id="clip0">
<rect width="26.1818" height="32" fill="white" transform="translate(17 16)"/>
</clipPath>
</defs>
</svg>
