<svg width="71" height="68" viewBox="0 0 71 68" fill="none" xmlns="http://www.w3.org/2000/svg">
<circle cx="36.295" cy="34" r="34" fill="white"/>
<path d="M48.0816 24.1467C47.4006 23.4653 46.5921 22.9249 45.7021 22.5561C44.8122 22.1874 43.8583 21.9976 42.895 21.9976C41.9317 21.9976 40.9778 22.1874 40.0878 22.5561C39.1979 22.9249 38.3893 23.4653 37.7083 24.1467L36.295 25.56L34.8816 24.1467C33.5061 22.7711 31.6404 21.9983 29.695 21.9983C27.7496 21.9983 25.8839 22.7711 24.5083 24.1467C23.1327 25.5222 22.3599 27.3879 22.3599 29.3333C22.3599 31.2787 23.1327 33.1444 24.5083 34.52L25.9216 35.9333L36.295 46.3067L46.6683 35.9333L48.0816 34.52C48.763 33.839 49.3034 33.0304 49.6722 32.1405C50.0409 31.2505 50.2307 30.2966 50.2307 29.3333C50.2307 28.37 50.0409 27.4161 49.6722 26.5262C49.3034 25.6362 48.763 24.8277 48.0816 24.1467V24.1467Z" stroke="#DB3B3E" stroke-width="2" stroke-linecap="round" stroke-linejoin="round"/>
<path d="M28.9364 26.4899C29.4831 26.4118 29.863 25.9053 29.7849 25.3586C29.7068 24.8118 29.2003 24.4319 28.6535 24.5101L28.9364 26.4899ZM24.8144 28.8039C24.7061 29.3454 25.0573 29.8723 25.5988 29.9806C26.1404 30.0889 26.6672 29.7377 26.7755 29.1961L24.8144 28.8039ZM28.6535 24.5101C27.7791 24.635 26.9323 25.165 26.2705 25.8865C25.5951 26.6229 25.0509 27.6214 24.8144 28.8039L26.7755 29.1961C26.939 28.3786 27.3115 27.7104 27.7444 27.2385C28.1909 26.7516 28.6442 26.5317 28.9364 26.4899L28.6535 24.5101Z" fill="#F7A8A9"/>
</svg>
