<svg width="62" height="61" viewBox="0 0 62 61" fill="none" xmlns="http://www.w3.org/2000/svg">
<rect width="61" height="61" rx="30.5" fill="white"/>
<path d="M24.3337 28.6667L29.667 16.6667C30.7279 16.6667 31.7453 17.0881 32.4954 17.8383C33.2456 18.5884 33.667 19.6058 33.667 20.6667V26H41.2137C41.6002 25.9956 41.9831 26.0754 42.3358 26.2336C42.6884 26.3919 43.0025 26.625 43.2561 26.9167C43.5098 27.2084 43.697 27.5518 43.8048 27.923C43.9126 28.2943 43.9383 28.6845 43.8803 29.0667L42.0403 41.0667C41.9439 41.7026 41.6209 42.2822 41.1309 42.6987C40.6408 43.1152 40.0168 43.3406 39.3737 43.3334H24.3337M24.3337 28.6667V43.3334M24.3337 28.6667H20.3337C19.6264 28.6667 18.9481 28.9476 18.448 29.4477C17.9479 29.9478 17.667 30.6261 17.667 31.3334V40.6667C17.667 41.3739 17.9479 42.0522 18.448 42.5523C18.9481 43.0524 19.6264 43.3334 20.3337 43.3334H24.3337" stroke="#DB3B3E" stroke-width="2" stroke-linecap="round" stroke-linejoin="round"/>
</svg>
