<svg width="69" height="68" viewBox="0 0 69 68" fill="none" xmlns="http://www.w3.org/2000/svg">
<circle cx="34.5" cy="34" r="34" fill="white"/>
<g clip-path="url(#clip0)">
<path d="M48.5533 26.56C48.395 25.9272 48.0724 25.3474 47.6182 24.8792C47.164 24.411 46.5943 24.0709 45.9667 23.8933C43.6733 23.3333 34.5 23.3333 34.5 23.3333C34.5 23.3333 25.3267 23.3333 23.0333 23.9467C22.4057 24.1242 21.836 24.4643 21.3818 24.9325C20.9276 25.4008 20.6051 25.9805 20.4467 26.6133C20.027 28.9407 19.8217 31.3017 19.8333 33.6667C19.8184 36.0494 20.0237 38.4284 20.4467 40.7733C20.6213 41.3865 20.9511 41.9442 21.4042 42.3926C21.8573 42.8411 22.4184 43.1651 23.0333 43.3333C25.3267 43.9467 34.5 43.9467 34.5 43.9467C34.5 43.9467 43.6733 43.9467 45.9667 43.3333C46.5943 43.1558 47.164 42.8157 47.6182 42.3475C48.0724 41.8792 48.395 41.2995 48.5533 40.6667C48.9698 38.3568 49.1751 36.0138 49.1667 33.6667C49.1816 31.2839 48.9763 28.9049 48.5533 26.56V26.56Z" stroke="#DB3B3E" stroke-width="2" stroke-linecap="round" stroke-linejoin="round"/>
<path d="M31.5 38.0267L39.1667 33.6667L31.5 29.3067V38.0267Z" stroke="#F27476" stroke-width="2" stroke-linecap="round" stroke-linejoin="round"/>
</g>
<defs>
<clipPath id="clip0">
<rect width="32" height="32" fill="white" transform="translate(18.5 18)"/>
</clipPath>
</defs>
</svg>
