<svg width="56" height="56" viewBox="0 0 56 56" fill="none" xmlns="http://www.w3.org/2000/svg">
<circle cx="28" cy="28" r="28" fill="#6BA5DD"/>
<g clip-path="url(#clip0)">
<path d="M43.3986 15.3999C42.058 16.3456 40.5736 17.0689 39.0026 17.5419C38.1595 16.5725 37.0389 15.8853 35.7925 15.5734C34.5461 15.2616 33.2339 15.34 32.0335 15.7982C30.8332 16.2563 29.8025 17.0721 29.0808 18.1351C28.3592 19.1982 27.9814 20.4572 27.9986 21.7419V23.1419C25.5383 23.2057 23.1004 22.6601 20.902 21.5536C18.7037 20.4471 16.8131 18.814 15.3986 16.7999C15.3986 16.7999 9.79863 29.3999 22.3986 34.9999C19.5154 36.9571 16.0807 37.9384 12.5986 37.7999C25.1986 44.7999 40.5986 37.7999 40.5986 21.6999C40.5973 21.31 40.5598 20.921 40.4866 20.5379C41.9155 19.1288 42.9238 17.3497 43.3986 15.3999V15.3999Z" stroke="white" stroke-width="2" stroke-linecap="round" stroke-linejoin="round"/>
</g>
<defs>
<clipPath id="clip0">
<rect width="33.6" height="33.6" fill="white" transform="translate(11.1992 11.2)"/>
</clipPath>
</defs>
</svg>
