<svg width="41" height="40" viewBox="0 0 41 40" fill="none" xmlns="http://www.w3.org/2000/svg">
<circle opacity="0.2" cx="20.5" cy="20" r="20" fill="white"/>
<g clip-path="url(#clip0)">
<path d="M31.5 11C30.5424 11.6755 29.4821 12.1922 28.36 12.53C27.7577 11.8376 26.9573 11.3467 26.067 11.124C25.1767 10.9012 24.2395 10.9572 23.3821 11.2845C22.5247 11.6118 21.7884 12.1944 21.273 12.9538C20.7575 13.7131 20.4877 14.6124 20.5 15.53V16.53C18.7426 16.5756 17.0013 16.1859 15.431 15.3955C13.8607 14.6051 12.5103 13.4387 11.5 12C11.5 12 7.5 21 16.5 25C14.4405 26.398 11.9872 27.099 9.5 27C18.5 32 29.5 27 29.5 15.5C29.4991 15.2215 29.4723 14.9436 29.42 14.67C30.4406 13.6635 31.1608 12.3928 31.5 11V11Z" stroke="white" stroke-width="2" stroke-linecap="round" stroke-linejoin="round"/>
</g>
<defs>
<clipPath id="clip0">
<rect width="24" height="24" fill="white" transform="translate(8.5 8)"/>
</clipPath>
</defs>
</svg>
