<svg width="41" height="40" viewBox="0 0 41 40" fill="none" xmlns="http://www.w3.org/2000/svg">
<circle opacity="0.2" cx="20.5" cy="20" r="20" fill="white"/>
<path d="M25.5 10H15.5C12.7386 10 10.5 12.2386 10.5 15V25C10.5 27.7614 12.7386 30 15.5 30H25.5C28.2614 30 30.5 27.7614 30.5 25V15C30.5 12.2386 28.2614 10 25.5 10Z" stroke="white" stroke-width="2" stroke-linecap="round" stroke-linejoin="round"/>
<path d="M24.5 19.3701C24.6234 20.2023 24.4813 21.0523 24.0938 21.7991C23.7063 22.5459 23.0931 23.1515 22.3416 23.5297C21.5901 23.908 20.7384 24.0397 19.9078 23.906C19.0771 23.7723 18.3098 23.3801 17.7148 22.7852C17.1199 22.1903 16.7277 21.4229 16.5941 20.5923C16.4604 19.7616 16.5921 18.91 16.9703 18.1584C17.3486 17.4069 17.9542 16.7938 18.701 16.4063C19.4478 16.0188 20.2978 15.8766 21.13 16.0001C21.9789 16.1259 22.7649 16.5215 23.3717 17.1284C23.9785 17.7352 24.3741 18.5211 24.5 19.3701Z" stroke="white" stroke-width="2" stroke-linecap="round" stroke-linejoin="round"/>
<path d="M26 14.5H26.01" stroke="white" stroke-width="2" stroke-linecap="round" stroke-linejoin="round"/>
</svg>
