<svg width="56" height="56" viewBox="0 0 56 56" fill="none" xmlns="http://www.w3.org/2000/svg">
<circle cx="28" cy="28" r="28" fill="#DB3B3E"/>
<path d="M34.999 13.9999H20.999C17.133 13.9999 13.999 17.1339 13.999 20.9999V34.9999C13.999 38.8659 17.133 41.9999 20.999 41.9999H34.999C38.865 41.9999 41.999 38.8659 41.999 34.9999V20.9999C41.999 17.1339 38.865 13.9999 34.999 13.9999Z" stroke="white" stroke-width="2" stroke-linecap="round" stroke-linejoin="round"/>
<path d="M33.5994 27.1179C33.7722 28.2831 33.5732 29.473 33.0307 30.5186C32.4882 31.5641 31.6298 32.4119 30.5777 32.9415C29.5255 33.471 28.3332 33.6554 27.1703 33.4682C26.0074 33.2811 24.9331 32.732 24.1002 31.8992C23.2673 31.0663 22.7182 29.992 22.5311 28.829C22.344 27.6661 22.5283 26.4738 23.0579 25.4217C23.5874 24.3695 24.4353 23.5112 25.4808 22.9687C26.5263 22.4262 27.7162 22.2272 28.8814 22.3999C30.0699 22.5762 31.1702 23.13 32.0198 23.9796C32.8693 24.8291 33.4232 25.9294 33.5994 27.1179Z" stroke="white" stroke-width="2" stroke-linecap="round" stroke-linejoin="round"/>
<path d="M35.6992 20.2999H35.7132" stroke="white" stroke-width="2" stroke-linecap="round" stroke-linejoin="round"/>
</svg>
