<svg width="48" height="48" viewBox="0 0 48 48" fill="none" xmlns="http://www.w3.org/2000/svg">
<circle cx="24" cy="24" r="24" fill="#364185"/>
<g clip-path="url(#clip0)">
<path d="M37.2 13.2C36.0509 14.0106 34.7786 14.6305 33.432 15.036C32.7093 14.205 31.7488 13.616 30.6805 13.3487C29.6121 13.0814 28.4874 13.1486 27.4585 13.5413C26.4296 13.934 25.5462 14.6333 24.9276 15.5445C24.3091 16.4556 23.9853 17.5348 24 18.636V19.836C21.8912 19.8907 19.8016 19.423 17.9173 18.4745C16.0329 17.5261 14.4124 16.1264 13.2 14.4C13.2 14.4 8.40005 25.2 19.2 30C16.7287 31.6776 13.7846 32.5187 10.8 32.4C21.6 38.4 34.8 32.4 34.8 18.6C34.7989 18.2657 34.7668 17.9323 34.704 17.604C35.9288 16.3962 36.793 14.8712 37.2 13.2V13.2Z" stroke="white" stroke-width="2" stroke-linecap="round" stroke-linejoin="round"/>
</g>
<defs>
<clipPath id="clip0">
<rect width="28.8" height="28.8" fill="white" transform="translate(9.6001 9.59998)"/>
</clipPath>
</defs>
</svg>
