<svg width="48" height="48" viewBox="0 0 48 48" fill="none" xmlns="http://www.w3.org/2000/svg">
<circle cx="24" cy="24" r="24" fill="#364185"/>
<path d="M30 12H18C14.6863 12 12 14.6863 12 18V30C12 33.3137 14.6863 36 18 36H30C33.3137 36 36 33.3137 36 30V18C36 14.6863 33.3137 12 30 12Z" stroke="white" stroke-width="2" stroke-linecap="round" stroke-linejoin="round"/>
<path d="M28.8 23.244C28.9481 24.2427 28.7775 25.2627 28.3125 26.1588C27.8475 27.055 27.1118 27.7817 26.21 28.2356C25.3082 28.6895 24.2862 28.8475 23.2894 28.6871C22.2926 28.5267 21.3718 28.0561 20.6578 27.3422C19.9439 26.6283 19.4733 25.7074 19.3129 24.7107C19.1525 23.7139 19.3105 22.6919 19.7644 21.79C20.2183 20.8882 20.9451 20.1525 21.8412 19.6875C22.7374 19.2225 23.7573 19.0519 24.756 19.2C25.7747 19.3511 26.7179 19.8258 27.4461 20.554C28.1743 21.2822 28.649 22.2253 28.8 23.244Z" stroke="white" stroke-width="2" stroke-linecap="round" stroke-linejoin="round"/>
<path d="M30.6001 17.4H30.6121" stroke="white" stroke-width="2" stroke-linecap="round" stroke-linejoin="round"/>
</svg>
