<svg width="127" height="40" viewBox="0 0 127 40" fill="none" xmlns="http://www.w3.org/2000/svg">
<path d="M23 11H27C27.5304 11 28.0391 11.2107 28.4142 11.5858C28.7893 11.9609 29 12.4696 29 13V27C29 27.5304 28.7893 28.0391 28.4142 28.4142C28.0391 28.7893 27.5304 29 27 29H23" stroke="#777676" stroke-width="2" stroke-linecap="round" stroke-linejoin="round"/>
<path d="M18 25L23 20L18 15" stroke="#777676" stroke-width="2" stroke-linecap="round" stroke-linejoin="round"/>
<path d="M23 20H11" stroke="#777676" stroke-width="2" stroke-linecap="round" stroke-linejoin="round"/>
<path d="M41.88 13H44.48V24.8H51.8V27H41.88V13ZM58.315 27.14C57.235 27.14 56.2617 26.9067 55.395 26.44C54.5283 25.9733 53.8483 25.3267 53.355 24.5C52.875 23.66 52.635 22.7133 52.635 21.66C52.635 20.6067 52.875 19.6667 53.355 18.84C53.8483 18.0133 54.5283 17.3667 55.395 16.9C56.2617 16.4333 57.235 16.2 58.315 16.2C59.4083 16.2 60.3883 16.4333 61.255 16.9C62.1217 17.3667 62.795 18.0133 63.275 18.84C63.7683 19.6667 64.015 20.6067 64.015 21.66C64.015 22.7133 63.7683 23.66 63.275 24.5C62.795 25.3267 62.1217 25.9733 61.255 26.44C60.3883 26.9067 59.4083 27.14 58.315 27.14ZM58.315 25C59.235 25 59.995 24.6933 60.595 24.08C61.195 23.4667 61.495 22.66 61.495 21.66C61.495 20.66 61.195 19.8533 60.595 19.24C59.995 18.6267 59.235 18.32 58.315 18.32C57.395 18.32 56.635 18.6267 56.035 19.24C55.4483 19.8533 55.155 20.66 55.155 21.66C55.155 22.66 55.4483 23.4667 56.035 24.08C56.635 24.6933 57.395 25 58.315 25ZM77.0056 16.32V25.38C77.0056 29.14 75.0856 31.02 71.2456 31.02C70.219 31.02 69.2456 30.8867 68.3256 30.62C67.4056 30.3667 66.6456 29.9933 66.0456 29.5L67.1656 27.62C67.6323 28.0067 68.219 28.3133 68.9256 28.54C69.6456 28.78 70.3723 28.9 71.1056 28.9C72.279 28.9 73.139 28.6333 73.6856 28.1C74.2323 27.5667 74.5056 26.7533 74.5056 25.66V25.1C74.079 25.5667 73.559 25.92 72.9456 26.16C72.3323 26.4 71.659 26.52 70.9256 26.52C69.9123 26.52 68.9923 26.3067 68.1656 25.88C67.3523 25.44 66.7056 24.8267 66.2256 24.04C65.759 23.2533 65.5256 22.3533 65.5256 21.34C65.5256 20.3267 65.759 19.4333 66.2256 18.66C66.7056 17.8733 67.3523 17.2667 68.1656 16.84C68.9923 16.4133 69.9123 16.2 70.9256 16.2C71.699 16.2 72.399 16.3267 73.0256 16.58C73.6656 16.8333 74.199 17.22 74.6256 17.74V16.32H77.0056ZM71.3056 24.4C72.2523 24.4 73.0256 24.12 73.6256 23.56C74.239 22.9867 74.5456 22.2467 74.5456 21.34C74.5456 20.4467 74.239 19.72 73.6256 19.16C73.0256 18.6 72.2523 18.32 71.3056 18.32C70.3456 18.32 69.559 18.6 68.9456 19.16C68.3456 19.72 68.0456 20.4467 68.0456 21.34C68.0456 22.2467 68.3456 22.9867 68.9456 23.56C69.559 24.12 70.3456 24.4 71.3056 24.4ZM85.8197 16.32H88.3197V27H85.8197V16.32ZM87.0797 14.56C86.6264 14.56 86.2464 14.42 85.9397 14.14C85.633 13.8467 85.4797 13.4867 85.4797 13.06C85.4797 12.6333 85.633 12.28 85.9397 12C86.2464 11.7067 86.6264 11.56 87.0797 11.56C87.533 11.56 87.913 11.7 88.2197 11.98C88.5264 12.2467 88.6797 12.5867 88.6797 13C88.6797 13.44 88.5264 13.8133 88.2197 14.12C87.9264 14.4133 87.5464 14.56 87.0797 14.56ZM97.6609 16.2C99.0076 16.2 100.088 16.5933 100.901 17.38C101.714 18.1667 102.121 19.3333 102.121 20.88V27H99.6209V21.2C99.6209 20.2667 99.4009 19.5667 98.9609 19.1C98.5209 18.62 97.8943 18.38 97.0809 18.38C96.1609 18.38 95.4343 18.66 94.9009 19.22C94.3676 19.7667 94.1009 20.56 94.1009 21.6V27H91.6009V16.32H93.9809V17.7C94.3943 17.2067 94.9143 16.8333 95.5409 16.58C96.1676 16.3267 96.8743 16.2 97.6609 16.2Z" fill="#777676"/>
</svg>
