<svg width="200" height="46" viewBox="0 0 200 46" fill="none" xmlns="http://www.w3.org/2000/svg">
<g clip-path="url(#clip0)">
<path d="M29.1214 0.0957031H34.8412V4.99052H29.1214V0.0957031ZM29.1214 10.4078H34.8412V34.4419H29.1214V10.4078Z" fill="#6BA5DD"/>
<path d="M57.0879 0.0957031C61.5428 0.0957031 64.5402 0.97567 66.1076 2.7081C67.4825 4.24805 68.17 6.80545 68.17 10.2978C68.17 14.1202 67.675 16.6226 66.6576 17.805C65.7501 18.905 64.2377 19.675 62.0927 20.0599V20.1974C64.1002 20.3899 65.6126 21.0774 66.6576 22.2599C67.4825 23.5798 67.895 25.5322 67.895 28.0896V34.4419H61.2678V29.2721C61.2678 28.0896 61.2128 27.0997 61.1028 26.3022C60.9928 25.5047 60.6903 24.8723 60.2228 24.3223C59.7553 23.7998 59.2054 23.4698 58.5729 23.3048C57.9404 23.1398 57.0879 23.0848 56.0155 23.0848H55.328H46.8033V34.4419H40.2036V0.0957031H57.0879ZM56.098 5.73299H46.8033V17.4475H56.2905C57.4454 17.4475 58.3254 17.3651 58.9304 17.1726C59.5353 16.9801 60.1128 16.6501 60.5803 16.1276C61.2128 15.3026 61.5428 13.7077 61.5428 11.3703C61.5428 9.19786 61.2953 7.74042 60.7728 6.97044C60.3603 6.44796 59.7553 6.11798 59.0129 5.95298C58.2704 5.81549 57.3079 5.73299 56.098 5.73299Z" fill="#6BA5DD"/>
<path d="M94.734 23.5248H78.2071C78.2071 24.0473 78.1796 24.4873 78.1246 24.8447C78.1796 26.1097 78.3171 27.1272 78.5096 27.9246C78.7021 28.7221 79.0871 29.2721 79.6371 29.6021C80.2421 29.9045 80.8195 30.097 81.342 30.1795C81.8645 30.262 82.6895 30.2895 83.8444 30.2895C85.1644 30.2895 86.0993 30.2345 86.6218 30.152C87.1718 30.0695 87.6393 29.8496 88.0518 29.5196C88.6292 29.0521 88.9317 28.1446 88.9317 26.7972H94.734C94.734 29.7396 93.9915 31.8295 92.4791 33.0669C91.6266 33.7269 90.5267 34.1669 89.1517 34.3869C87.7768 34.5794 85.9893 34.6894 83.8169 34.6894C82.4145 34.6894 81.122 34.6344 79.9946 34.4969C78.8671 34.3869 77.8221 34.1394 76.8597 33.7544C75.8972 33.3694 75.1272 32.8469 74.4948 32.132C73.5873 31.0595 73.0098 29.6571 72.7348 27.9521C72.4873 26.2472 72.3499 24.2673 72.3499 22.0123C72.3499 17.255 73.1473 14.0651 74.7698 12.4427C76.3922 10.8478 79.2796 10.0503 83.4319 10.0503C87.8318 10.2153 90.6642 10.8753 91.9566 12.0302C92.7816 12.7452 93.3866 13.7077 93.7716 14.9451C94.1565 16.1826 94.404 17.365 94.4865 18.4925C94.624 19.7024 94.679 21.3524 94.734 23.5248ZM88.9317 19.8674C88.9317 17.5025 88.6842 16.0451 88.1618 15.4676C87.9418 15.2476 87.6393 15.0551 87.2543 14.9176C86.8693 14.7801 86.4843 14.6701 86.0168 14.6151C85.5769 14.5601 85.1369 14.5326 84.7244 14.5051C84.3119 14.4776 83.8994 14.4776 83.4594 14.4501C82.2495 14.5051 81.287 14.6151 80.5995 14.7526C79.9121 14.8901 79.3896 15.1651 79.0321 15.5501C78.6746 15.9351 78.4546 16.4576 78.3446 17.145C78.2346 17.8325 78.2071 18.74 78.2071 19.8674H88.9317Z" fill="#6BA5DD"/>
<path d="M115.193 31.527L115.001 31.4445C114.478 32.847 113.626 33.7269 112.388 34.1394C111.151 34.5244 109.473 34.7444 107.301 34.7444C103.891 34.7444 101.581 34.0844 100.344 32.7645C99.1613 31.637 98.5563 29.7671 98.5563 27.2372C98.5563 24.4873 99.2437 22.5349 100.619 21.4349C101.966 20.3074 104.249 19.73 107.493 19.73C108.676 19.73 109.693 19.785 110.546 19.8674C111.398 19.9499 112.196 20.1974 112.966 20.6099C113.736 21.0224 114.313 21.6274 114.671 22.4799H114.891V18.7675C114.891 17.2275 114.726 16.1551 114.396 15.5501C114.148 15.0826 113.736 14.7251 113.131 14.4502C112.553 14.1752 111.453 14.0377 109.803 14.0377C108.538 14.0927 107.686 14.1752 107.301 14.2302C106.916 14.2852 106.503 14.4777 106.036 14.8351C105.486 15.3576 105.211 16.2376 105.211 17.4475H99.4362C99.4362 14.5051 100.261 12.5252 101.911 11.4528C103.314 10.5728 105.596 10.1328 108.731 10.1328H109.501C114.038 10.1328 117.063 10.7928 118.521 12.1127C119.895 13.3502 120.583 15.4951 120.583 18.52V34.4419H114.863L115.193 31.527ZM105.046 24.6798C104.551 25.2298 104.304 26.0547 104.304 27.0997C104.304 28.1171 104.496 28.9421 104.854 29.6296C105.129 30.0696 105.624 30.3721 106.311 30.5371C106.998 30.702 107.988 30.7845 109.308 30.7845C110.738 30.7845 111.838 30.702 112.581 30.5371C113.323 30.3721 113.928 30.0146 114.341 29.4646C114.726 28.8046 114.946 28.0071 114.946 27.0172C114.946 25.6422 114.451 24.7348 113.488 24.2948C112.526 23.8548 111.261 23.6348 109.666 23.6348C108.126 23.7173 107.053 23.7998 106.476 23.8823C105.899 23.9648 105.404 24.2398 105.046 24.6798Z" fill="#6BA5DD"/>
<path d="M142.142 13.5977V0.0957031H147.945V34.4419H142.142L142.417 30.867H142.225C141.07 33.4244 138.622 34.7169 134.91 34.7169C131.693 34.7169 129.438 34.0569 128.118 32.737C127.32 32.022 126.743 31.1145 126.358 29.9871C125.973 28.8871 125.753 27.7597 125.643 26.6597C125.56 25.5322 125.505 24.2673 125.505 22.8098C125.505 19.95 125.588 17.86 125.78 16.5401C126.193 14.6427 126.798 13.2952 127.65 12.4702C128.365 11.6728 129.273 11.0953 130.318 10.7378C131.363 10.3803 132.793 10.1603 134.607 10.1328C138.54 10.1328 140.987 11.2878 141.922 13.5977H142.142ZM136.422 14.4777C134.25 14.4777 132.82 15.0276 132.16 16.1276C131.555 17.2551 131.253 19.3725 131.253 22.5349C131.253 24.0748 131.308 25.3948 131.445 26.4947C131.583 27.5947 131.885 28.4196 132.38 28.9971C132.793 29.4921 133.315 29.8221 133.865 30.0146C134.442 30.2071 135.157 30.3446 135.982 30.3996C136.34 30.3171 136.917 30.2346 137.742 30.1521C138.54 30.0696 139.2 29.9596 139.695 29.7671C140.19 29.6021 140.657 29.2721 141.07 28.7771C141.702 27.9247 142.032 25.9722 142.032 22.8648V21.7099C142.032 20.2799 141.977 19.2075 141.84 18.465C141.647 17.1176 141.07 16.1001 140.107 15.4401C139.172 14.8076 137.935 14.4777 136.422 14.4777Z" fill="#6BA5DD"/>
<path d="M153.362 0.0957031H159.082V4.99052H153.362V0.0957031ZM153.362 10.4078H159.082V34.4419H153.362V10.4078Z" fill="url(#paint0_linear)"/>
<path d="M177.121 0.0957031V4.49554H175.444C173.959 4.49554 172.941 4.66053 172.474 4.99052C172.061 5.23801 171.786 5.623 171.649 6.14548C171.511 6.66796 171.429 7.38293 171.429 8.31789V10.3803H177.341V14.8077H171.429V34.4144H165.709V14.8352H162.327V10.4078H165.709V8.0704C165.709 4.90802 166.341 2.7356 167.579 1.60815C168.679 0.590685 170.604 0.0957031 173.409 0.0957031H177.121Z" fill="url(#paint1_linear)"/>
<path d="M188.065 34.4418H185.261L181.328 22.4523L177.286 10.4077H183.281L189.385 30.8669H189.468L194.088 10.4077H200L196.618 23.9097L193.318 37.3292C192.905 39.0341 192.383 40.4366 191.75 41.5915C191.118 42.719 190.265 43.599 189.193 44.2039C188.093 44.7814 186.498 45.0839 184.436 45.0839C183.363 45.0839 182.621 45.0564 182.153 45.0014V40.6566C182.291 40.6566 182.483 40.6841 182.786 40.7116C183.061 40.7391 183.281 40.7666 183.391 40.7666C184.876 40.7666 185.948 40.2441 186.553 39.1991C187.185 38.1267 187.68 36.5592 188.065 34.4418Z" fill="url(#paint2_linear)"/>
<path d="M6.57227 32.0771C6.57227 32.0771 6.57227 26.1098 6.57227 23.9649C6.57227 20.83 7.23224 18.0251 8.4147 15.8802C8.16721 15.0552 8.05721 14.1477 8.05721 13.1853C8.05721 9.8579 9.07467 7.1905 11.0821 5.26558C14.712 1.74571 20.2393 1.9382 20.4867 1.9657H31.7063V3.31315H20.4592C20.3767 3.31315 15.2344 3.14816 12.0171 6.22804C10.2846 7.90548 9.40466 10.2429 9.40466 13.1853C9.40466 13.5703 9.43216 13.9553 9.45966 14.3127C9.65215 14.0652 9.87214 13.8453 10.1196 13.6253C14.0795 9.83041 19.6893 9.36292 23.2091 10.8754C25.904 12.0303 27.444 14.2577 27.444 16.9801C27.444 20.5 24.0616 22.9749 19.1943 22.9749C15.0969 22.9749 10.9721 21.1325 9.07467 17.5851C8.3597 19.345 7.94721 21.545 7.94721 23.9649C7.94721 26.1098 7.94721 32.0771 7.94721 32.0771H6.57227ZM9.87214 16.0452C11.2471 19.84 15.3444 21.6 19.1943 21.6C21.0917 21.6 22.8517 21.16 24.1166 20.335C25.0241 19.7575 26.0965 18.6851 26.0965 16.9526C26.0965 14.7527 24.8866 13.0478 22.6867 12.0853C19.5793 10.7654 14.602 11.1779 11.0546 14.5602C10.6146 15.0002 10.2296 15.4952 9.87214 16.0452Z" fill="#6BA5DD"/>
<path d="M9.87218 32.5719H9.04721V30.4545C9.04721 30.0145 8.68972 29.657 8.24974 29.657H6.24231C5.80233 29.657 5.44484 30.0145 5.44484 30.4545V32.5719H4.61987V34.6068H5.44484V35.9267C5.44484 36.0917 5.58234 36.2292 5.74733 36.2292C5.91232 36.2292 6.04982 36.0917 6.04982 35.9267V34.6068H8.41473V35.9267C8.41473 36.0917 8.55223 36.2292 8.71722 36.2292C8.88221 36.2292 9.01971 36.0917 9.01971 35.9267V34.6068H9.84468V32.5719H9.87218Z" fill="#6BA5DD"/>
<path d="M7.56231 44.9465C7.56231 45.1115 7.42482 45.2489 7.25983 45.2489C7.09483 45.2489 6.95734 45.1115 6.95734 44.9465V39.3367C6.95734 39.1717 7.09483 39.0342 7.25983 39.0342C7.42482 39.0342 7.56231 39.1717 7.56231 39.3367V44.9465Z" fill="#6BA5DD"/>
<path d="M12.0996 43.8192C12.1821 43.9841 12.0996 44.1491 11.9346 44.2316C11.7696 44.3141 11.6046 44.2316 11.5221 44.0666L9.26723 38.9243C9.18473 38.7593 9.26723 38.5944 9.43222 38.5119C9.59721 38.4294 9.76221 38.5119 9.84471 38.6769L12.0996 43.8192Z" fill="#6BA5DD"/>
<path d="M14.217 39.6393C14.2995 39.7218 14.2995 39.8868 14.217 40.0243C14.107 40.1618 13.9695 40.2168 13.8595 40.1618L10.7796 37.9068C10.6971 37.8243 10.6971 37.6593 10.7796 37.5219C10.8896 37.3844 11.0271 37.3294 11.1371 37.3844L14.217 39.6393Z" fill="#6BA5DD"/>
<path d="M0.0550367 39.6393C-0.0274602 39.7218 -0.0274602 39.8868 0.0550367 40.0243C0.165033 40.1618 0.302527 40.2168 0.412523 40.1618L3.49241 37.9068C3.5749 37.8243 3.5749 37.6593 3.49241 37.5219C3.38241 37.3844 3.24492 37.3294 3.13492 37.3844L0.0550367 39.6393Z" fill="#6BA5DD"/>
<path d="M0.165043 42.4441C0.0825457 42.5266 0.137544 42.6916 0.275038 42.8016C0.412533 42.9116 0.577527 42.9391 0.660024 42.8291L2.22747 40.9592C2.30996 40.8767 2.25496 40.7117 2.11747 40.6017C1.97997 40.4917 1.81498 40.4642 1.73248 40.5742L0.165043 42.4441Z" fill="url(#paint3_linear)"/>
<path d="M14.0245 42.4441C14.107 42.5266 14.052 42.6916 13.9145 42.8016C13.777 42.9116 13.612 42.9391 13.5295 42.8291L11.9621 40.9592C11.8796 40.8767 11.9346 40.7117 12.0721 40.6017C12.2096 40.4917 12.3746 40.4642 12.4571 40.5742L14.0245 42.4441Z" fill="url(#paint4_linear)"/>
<path d="M4.45483 44.7266C4.42733 44.8366 4.53733 44.9741 4.70232 45.0016C4.86732 45.0291 5.03231 44.9741 5.05981 44.8641L5.58229 42.4717C5.60979 42.3617 5.49979 42.2242 5.3348 42.1967C5.16981 42.1692 5.00481 42.2242 4.97731 42.3342L4.45483 44.7266Z" fill="url(#paint5_linear)"/>
<path d="M9.81716 44.7266C9.84466 44.8366 9.73466 44.9741 9.56967 45.0016C9.40467 45.0291 9.23968 44.9741 9.21218 44.8641L8.6897 42.4717C8.6622 42.3617 8.77219 42.2242 8.93719 42.1967C9.10218 42.1692 9.26718 42.2242 9.29468 42.3342L9.81716 44.7266Z" fill="url(#paint6_linear)"/>
<path d="M2.1725 43.8192C2.09 43.9841 2.1725 44.1491 2.33749 44.2316C2.50249 44.3141 2.66748 44.2316 2.74998 44.0666L5.00489 38.9243C5.08739 38.7593 5.00489 38.5944 4.8399 38.5119C4.67491 38.4294 4.50991 38.5119 4.42742 38.6769L2.1725 43.8192Z" fill="#6BA5DD"/>
</g>
<defs>
<linearGradient id="paint0_linear" x1="156.21" y1="32.3009" x2="156.21" y2="5.21131" gradientUnits="userSpaceOnUse">
<stop offset="0.0645161" stop-color="#535188"/>
<stop offset="0.5435" stop-color="#5B7BBB"/>
<stop offset="1" stop-color="#6BA5DD"/>
</linearGradient>
<linearGradient id="paint1_linear" x1="169.792" y1="32.3009" x2="169.792" y2="5.21131" gradientUnits="userSpaceOnUse">
<stop offset="0.0645161" stop-color="#535188"/>
<stop offset="0.5435" stop-color="#5B7BBB"/>
<stop offset="1" stop-color="#6BA5DD"/>
</linearGradient>
<linearGradient id="paint2_linear" x1="188.651" y1="32.3008" x2="188.651" y2="5.21121" gradientUnits="userSpaceOnUse">
<stop offset="0.0645161" stop-color="#535188"/>
<stop offset="0.5435" stop-color="#5B7BBB"/>
<stop offset="1" stop-color="#6BA5DD"/>
</linearGradient>
<linearGradient id="paint3_linear" x1="0.318239" y1="42.7941" x2="1.99109" y2="40.6858" gradientUnits="userSpaceOnUse">
<stop offset="0.0645161" stop-color="#535188"/>
<stop offset="0.5435" stop-color="#5B7BBB"/>
<stop offset="1" stop-color="#6BA5DD"/>
</linearGradient>
<linearGradient id="paint4_linear" x1="13.8657" y1="42.7341" x2="12.2272" y2="40.7977" gradientUnits="userSpaceOnUse">
<stop offset="0.0645161" stop-color="#535188"/>
<stop offset="0.5435" stop-color="#5B7BBB"/>
<stop offset="1" stop-color="#6BA5DD"/>
</linearGradient>
<linearGradient id="paint5_linear" x1="4.76274" y1="44.8609" x2="5.25541" y2="42.4662" gradientUnits="userSpaceOnUse">
<stop offset="0.0645161" stop-color="#535188"/>
<stop offset="0.5435" stop-color="#5B7BBB"/>
<stop offset="1" stop-color="#6BA5DD"/>
</linearGradient>
<linearGradient id="paint6_linear" x1="9.53532" y1="44.8604" x2="8.98534" y2="42.4314" gradientUnits="userSpaceOnUse">
<stop offset="0.0645161" stop-color="#535188"/>
<stop offset="0.5435" stop-color="#5B7BBB"/>
<stop offset="1" stop-color="#6BA5DD"/>
</linearGradient>
<clipPath id="clip0">
<rect width="200" height="45.1533" fill="white" transform="translate(0 0.0957031)"/>
</clipPath>
</defs>
</svg>
