<svg width="200" height="46" viewBox="0 0 200 46" fill="none" xmlns="http://www.w3.org/2000/svg">
<g clip-path="url(#clip0)">
<path d="M29.1211 0.0957031H34.8409V4.99052H29.1211V0.0957031ZM29.1211 10.4078H34.8409V34.4419H29.1211V10.4078Z" fill="#6BA5DD"/>
<path d="M57.0875 0.0957031C61.5423 0.0957031 64.5397 0.97567 66.1072 2.7081C67.4821 4.24805 68.1696 6.80545 68.1696 10.2978C68.1696 14.1202 67.6746 16.6226 66.6571 17.805C65.7497 18.905 64.2372 19.675 62.0923 20.0599V20.1974C64.0997 20.3899 65.6122 21.0774 66.6571 22.2599C67.4821 23.5798 67.8946 25.5322 67.8946 28.0896V34.4419H61.2673V29.2721C61.2673 28.0896 61.2123 27.0997 61.1024 26.3022C60.9924 25.5047 60.6899 24.8723 60.2224 24.3223C59.7549 23.7998 59.2049 23.4698 58.5724 23.3048C57.94 23.1398 57.0875 23.0848 56.015 23.0848H55.3276H46.8029V34.4419H40.2031V0.0957031H57.0875ZM56.0975 5.73299H46.8029V17.4475H56.29C57.445 17.4475 58.325 17.3651 58.9299 17.1726C59.5349 16.9801 60.1124 16.6501 60.5799 16.1276C61.2124 15.3026 61.5423 13.7077 61.5423 11.3703C61.5423 9.19786 61.2948 7.74042 60.7724 6.97044C60.3599 6.44796 59.7549 6.11798 59.0124 5.95298C58.27 5.81549 57.3075 5.73299 56.0975 5.73299Z" fill="#6BA5DD"/>
<path d="M94.7338 23.5248H78.2069C78.2069 24.0473 78.1794 24.4873 78.1244 24.8447C78.1794 26.1097 78.3169 27.1272 78.5094 27.9246C78.7019 28.7221 79.0869 29.2721 79.6368 29.6021C80.2418 29.9045 80.8193 30.097 81.3418 30.1795C81.8642 30.262 82.6892 30.2895 83.8442 30.2895C85.1641 30.2895 86.0991 30.2345 86.6216 30.152C87.1716 30.0695 87.639 29.8496 88.0515 29.5196C88.629 29.0521 88.9315 28.1446 88.9315 26.7972H94.7338C94.7338 29.7396 93.9913 31.8295 92.4789 33.0669C91.6264 33.7269 90.5264 34.1669 89.1515 34.3869C87.7765 34.5794 85.9891 34.6894 83.8167 34.6894C82.4142 34.6894 81.1218 34.6344 79.9943 34.4969C78.8669 34.3869 77.8219 34.1394 76.8594 33.7544C75.897 33.3694 75.127 32.8469 74.4945 32.132C73.5871 31.0595 73.0096 29.6571 72.7346 27.9521C72.4871 26.2472 72.3496 24.2673 72.3496 22.0123C72.3496 17.255 73.1471 14.0651 74.7695 12.4427C76.392 10.8478 79.2793 10.0503 83.4317 10.0503C87.8315 10.2153 90.6639 10.8753 91.9564 12.0302C92.7813 12.7452 93.3863 13.7077 93.7713 14.9451C94.1563 16.1826 94.4038 17.365 94.4863 18.4925C94.6238 19.7024 94.6788 21.3524 94.7338 23.5248ZM88.9315 19.8674C88.9315 17.5025 88.684 16.0451 88.1615 15.4676C87.9415 15.2476 87.639 15.0551 87.254 14.9176C86.8691 14.7801 86.4841 14.6701 86.0166 14.6151C85.5766 14.5601 85.1366 14.5326 84.7241 14.5051C84.3117 14.4776 83.8992 14.4776 83.4592 14.4501C82.2492 14.5051 81.2868 14.6151 80.5993 14.7526C79.9118 14.8901 79.3893 15.1651 79.0319 15.5501C78.6744 15.9351 78.4544 16.4576 78.3444 17.145C78.2344 17.8325 78.2069 18.74 78.2069 19.8674H88.9315Z" fill="#6BA5DD"/>
<path d="M115.194 31.527L115.001 31.4445C114.479 32.847 113.626 33.7269 112.389 34.1394C111.151 34.5244 109.474 34.7444 107.301 34.7444C103.891 34.7444 101.582 34.0844 100.344 32.7645C99.1616 31.637 98.5566 29.7671 98.5566 27.2372C98.5566 24.4873 99.2441 22.5349 100.619 21.4349C101.967 20.3074 104.249 19.73 107.494 19.73C108.676 19.73 109.694 19.785 110.546 19.8674C111.399 19.9499 112.196 20.1974 112.966 20.6099C113.736 21.0224 114.314 21.6274 114.671 22.4799H114.891V18.7675C114.891 17.2275 114.726 16.1551 114.396 15.5501C114.149 15.0826 113.736 14.7251 113.131 14.4502C112.554 14.1752 111.454 14.0377 109.804 14.0377C108.539 14.0927 107.686 14.1752 107.301 14.2302C106.916 14.2852 106.504 14.4777 106.036 14.8351C105.486 15.3576 105.211 16.2376 105.211 17.4475H99.4366C99.4366 14.5051 100.262 12.5252 101.912 11.4528C103.314 10.5728 105.596 10.1328 108.731 10.1328H109.501C114.039 10.1328 117.063 10.7928 118.521 12.1127C119.896 13.3502 120.583 15.4951 120.583 18.52V34.4419H114.864L115.194 31.527ZM105.046 24.6798C104.551 25.2298 104.304 26.0547 104.304 27.0997C104.304 28.1171 104.496 28.9421 104.854 29.6296C105.129 30.0696 105.624 30.3721 106.311 30.5371C106.999 30.702 107.989 30.7845 109.309 30.7845C110.739 30.7845 111.839 30.702 112.581 30.5371C113.324 30.3721 113.929 30.0146 114.341 29.4646C114.726 28.8046 114.946 28.0071 114.946 27.0172C114.946 25.6422 114.451 24.7348 113.489 24.2948C112.526 23.8548 111.261 23.6348 109.666 23.6348C108.126 23.7173 107.054 23.7998 106.476 23.8823C105.899 23.9648 105.404 24.2398 105.046 24.6798Z" fill="#6BA5DD"/>
<path d="M142.142 13.5977V0.0957031H147.944V34.4419H142.142L142.417 30.867H142.224C141.069 33.4244 138.622 34.7169 134.91 34.7169C131.692 34.7169 129.437 34.0569 128.117 32.737C127.32 32.022 126.742 31.1145 126.357 29.9871C125.972 28.8871 125.752 27.7597 125.642 26.6597C125.56 25.5322 125.505 24.2673 125.505 22.8098C125.505 19.95 125.587 17.86 125.78 16.5401C126.192 14.6427 126.797 13.2952 127.65 12.4702C128.365 11.6728 129.272 11.0953 130.317 10.7378C131.362 10.3803 132.792 10.1603 134.607 10.1328C138.539 10.1328 140.987 11.2878 141.922 13.5977H142.142ZM136.422 14.4777C134.25 14.4777 132.82 15.0276 132.16 16.1276C131.555 17.2551 131.252 19.3725 131.252 22.5349C131.252 24.0748 131.307 25.3948 131.445 26.4947C131.582 27.5947 131.885 28.4196 132.38 28.9971C132.792 29.4921 133.315 29.8221 133.865 30.0146C134.442 30.2071 135.157 30.3446 135.982 30.3996C136.339 30.3171 136.917 30.2346 137.742 30.1521C138.539 30.0696 139.199 29.9596 139.694 29.7671C140.189 29.6021 140.657 29.2721 141.069 28.7771C141.702 27.9247 142.032 25.9722 142.032 22.8648V21.7099C142.032 20.2799 141.977 19.2075 141.839 18.465C141.647 17.1176 141.069 16.1001 140.107 15.4401C139.172 14.8076 137.934 14.4777 136.422 14.4777Z" fill="#6BA5DD"/>
<path d="M153.361 0.0957031H159.081V4.99052H153.361V0.0957031ZM153.361 10.4078H159.081V34.4419H153.361V10.4078Z" fill="url(#paint0_linear)"/>
<path d="M177.121 0.0957031V4.49554H175.443C173.958 4.49554 172.941 4.66053 172.473 4.99052C172.061 5.23801 171.786 5.623 171.648 6.14548C171.511 6.66796 171.428 7.38293 171.428 8.31789V10.3803H177.341V14.8077H171.428V34.4144H165.709V14.8352H162.326V10.4078H165.709V8.0704C165.709 4.90802 166.341 2.7356 167.578 1.60815C168.678 0.590685 170.603 0.0957031 173.408 0.0957031H177.121Z" fill="url(#paint1_linear)"/>
<path d="M188.066 34.4418H185.261L181.328 22.4523L177.286 10.4077H183.281L189.386 30.8669H189.468L194.088 10.4077H200L196.618 23.9097L193.318 37.3292C192.906 39.0341 192.383 40.4366 191.751 41.5915C191.118 42.719 190.266 43.599 189.193 44.2039C188.093 44.7814 186.498 45.0839 184.436 45.0839C183.363 45.0839 182.621 45.0564 182.153 45.0014V40.6566C182.291 40.6566 182.483 40.6841 182.786 40.7116C183.061 40.7391 183.281 40.7666 183.391 40.7666C184.876 40.7666 185.948 40.2441 186.553 39.1991C187.186 38.1267 187.681 36.5592 188.066 34.4418Z" fill="url(#paint2_linear)"/>
<path d="M6.57227 32.0771C6.57227 32.0771 6.57227 26.1098 6.57227 23.9649C6.57227 20.83 7.23224 18.0251 8.4147 15.8802C8.16721 15.0552 8.05721 14.1477 8.05721 13.1853C8.05721 9.8579 9.07467 7.1905 11.0821 5.26558C14.712 1.74571 20.2393 1.9382 20.4867 1.9657H31.7063V3.31315H20.4592C20.3767 3.31315 15.2344 3.14816 12.0171 6.22804C10.2846 7.90548 9.40466 10.2429 9.40466 13.1853C9.40466 13.5703 9.43216 13.9553 9.45966 14.3127C9.65215 14.0652 9.87214 13.8453 10.1196 13.6253C14.0795 9.83041 19.6893 9.36292 23.2091 10.8754C25.904 12.0303 27.444 14.2577 27.444 16.9801C27.444 20.5 24.0616 22.9749 19.1943 22.9749C15.0969 22.9749 10.9721 21.1325 9.07467 17.5851C8.3597 19.345 7.94721 21.545 7.94721 23.9649C7.94721 26.1098 7.94721 32.0771 7.94721 32.0771H6.57227ZM9.87214 16.0452C11.2471 19.84 15.3444 21.6 19.1943 21.6C21.0917 21.6 22.8517 21.16 24.1166 20.335C25.0241 19.7575 26.0965 18.6851 26.0965 16.9526C26.0965 14.7527 24.8866 13.0478 22.6867 12.0853C19.5793 10.7654 14.602 11.1779 11.0546 14.5602C10.6146 15.0002 10.2296 15.4952 9.87214 16.0452Z" fill="#6BA5DD"/>
<path d="M9.87242 32.5719H9.04745V30.4545C9.04745 30.0145 8.68997 29.657 8.24998 29.657H6.24256C5.80257 29.657 5.44509 30.0145 5.44509 30.4545V32.5719H4.62012V34.6068H5.44509V35.9267C5.44509 36.0917 5.58258 36.2292 5.74758 36.2292C5.91257 36.2292 6.05006 36.0917 6.05006 35.9267V34.6068H8.41498V35.9267C8.41498 36.0917 8.55247 36.2292 8.71746 36.2292C8.88246 36.2292 9.01995 36.0917 9.01995 35.9267V34.6068H9.84492V32.5719H9.87242Z" fill="#6BA5DD"/>
<path d="M7.56201 44.9465C7.56201 45.1115 7.42451 45.2489 7.25952 45.2489C7.09453 45.2489 6.95703 45.1115 6.95703 44.9465V39.3367C6.95703 39.1717 7.09453 39.0342 7.25952 39.0342C7.42451 39.0342 7.56201 39.1717 7.56201 39.3367V44.9465Z" fill="#6BA5DD"/>
<path d="M12.0991 43.8192C12.1816 43.9841 12.0991 44.1491 11.9341 44.2316C11.7691 44.3141 11.6042 44.2316 11.5217 44.0666L9.26674 38.9243C9.18424 38.7593 9.26674 38.5944 9.43173 38.5119C9.59673 38.4294 9.76172 38.5119 9.84422 38.6769L12.0991 43.8192Z" fill="#6BA5DD"/>
<path d="M14.217 39.6393C14.2995 39.7218 14.2995 39.8868 14.217 40.0243C14.107 40.1618 13.9695 40.2168 13.8595 40.1618L10.7796 37.9068C10.6971 37.8243 10.6971 37.6593 10.7796 37.5219C10.8896 37.3844 11.0271 37.3294 11.1371 37.3844L14.217 39.6393Z" fill="#6BA5DD"/>
<path d="M0.0550367 39.6393C-0.0274602 39.7218 -0.0274602 39.8868 0.0550367 40.0243C0.165033 40.1618 0.302527 40.2168 0.412523 40.1618L3.49241 37.9068C3.5749 37.8243 3.5749 37.6593 3.49241 37.5219C3.38241 37.3844 3.24492 37.3294 3.13492 37.3844L0.0550367 39.6393Z" fill="#6BA5DD"/>
<path d="M0.164737 42.4441C0.0822406 42.5266 0.137238 42.6916 0.274733 42.8016C0.412228 42.9116 0.577222 42.9391 0.659719 42.8291L2.22716 40.9592C2.30966 40.8767 2.25466 40.7117 2.11716 40.6017C1.97967 40.4917 1.81468 40.4642 1.73218 40.5742L0.164737 42.4441Z" fill="url(#paint3_linear)"/>
<path d="M14.025 42.4441C14.1075 42.5266 14.0525 42.6916 13.915 42.8016C13.7775 42.9116 13.6125 42.9391 13.53 42.8291L11.9626 40.9592C11.8801 40.8767 11.9351 40.7117 12.0726 40.6017C12.2101 40.4917 12.3751 40.4642 12.4576 40.5742L14.025 42.4441Z" fill="url(#paint4_linear)"/>
<path d="M4.45441 44.7266C4.42691 44.8366 4.5369 44.9741 4.7019 45.0016C4.86689 45.0291 5.03188 44.9741 5.05938 44.8641L5.58186 42.4717C5.60936 42.3617 5.49937 42.2242 5.33437 42.1967C5.16938 42.1692 5.00439 42.2242 4.97689 42.3342L4.45441 44.7266Z" fill="url(#paint5_linear)"/>
<path d="M9.81722 44.7266C9.84472 44.8366 9.73472 44.9741 9.56973 45.0016C9.40473 45.0291 9.23974 44.9741 9.21224 44.8641L8.68976 42.4717C8.66226 42.3617 8.77226 42.2242 8.93725 42.1967C9.10224 42.1692 9.26724 42.2242 9.29474 42.3342L9.81722 44.7266Z" fill="url(#paint6_linear)"/>
<path d="M2.17201 43.8192C2.08952 43.9841 2.17201 44.1491 2.33701 44.2316C2.502 44.3141 2.66699 44.2316 2.74949 44.0666L5.00441 38.9243C5.0869 38.7593 5.00441 38.5944 4.83941 38.5119C4.67442 38.4294 4.50942 38.5119 4.42693 38.6769L2.17201 43.8192Z" fill="#6BA5DD"/>
</g>
<defs>
<linearGradient id="paint0_linear" x1="156.209" y1="32.3009" x2="156.209" y2="5.21131" gradientUnits="userSpaceOnUse">
<stop offset="0.0645161" stop-color="#535188"/>
<stop offset="0.5435" stop-color="#5B7BBB"/>
<stop offset="1" stop-color="#6BA5DD"/>
</linearGradient>
<linearGradient id="paint1_linear" x1="169.792" y1="32.3009" x2="169.792" y2="5.21131" gradientUnits="userSpaceOnUse">
<stop offset="0.0645161" stop-color="#535188"/>
<stop offset="0.5435" stop-color="#5B7BBB"/>
<stop offset="1" stop-color="#6BA5DD"/>
</linearGradient>
<linearGradient id="paint2_linear" x1="188.651" y1="32.3008" x2="188.651" y2="5.21121" gradientUnits="userSpaceOnUse">
<stop offset="0.0645161" stop-color="#535188"/>
<stop offset="0.5435" stop-color="#5B7BBB"/>
<stop offset="1" stop-color="#6BA5DD"/>
</linearGradient>
<linearGradient id="paint3_linear" x1="0.317934" y1="42.7941" x2="1.99078" y2="40.6858" gradientUnits="userSpaceOnUse">
<stop offset="0.0645161" stop-color="#535188"/>
<stop offset="0.5435" stop-color="#5B7BBB"/>
<stop offset="1" stop-color="#6BA5DD"/>
</linearGradient>
<linearGradient id="paint4_linear" x1="13.8662" y1="42.7341" x2="12.2277" y2="40.7977" gradientUnits="userSpaceOnUse">
<stop offset="0.0645161" stop-color="#535188"/>
<stop offset="0.5435" stop-color="#5B7BBB"/>
<stop offset="1" stop-color="#6BA5DD"/>
</linearGradient>
<linearGradient id="paint5_linear" x1="4.76231" y1="44.8609" x2="5.25498" y2="42.4662" gradientUnits="userSpaceOnUse">
<stop offset="0.0645161" stop-color="#535188"/>
<stop offset="0.5435" stop-color="#5B7BBB"/>
<stop offset="1" stop-color="#6BA5DD"/>
</linearGradient>
<linearGradient id="paint6_linear" x1="9.53538" y1="44.8604" x2="8.9854" y2="42.4314" gradientUnits="userSpaceOnUse">
<stop offset="0.0645161" stop-color="#535188"/>
<stop offset="0.5435" stop-color="#5B7BBB"/>
<stop offset="1" stop-color="#6BA5DD"/>
</linearGradient>
<clipPath id="clip0">
<rect width="200" height="45.1533" fill="white" transform="translate(0 0.0957031)"/>
</clipPath>
</defs>
</svg>
