<svg width="1920" height="883" viewBox="0 0 1920 883" fill="none" xmlns="http://www.w3.org/2000/svg">
<mask id="mask0" mask-type="alpha" maskUnits="userSpaceOnUse" x="0" y="0" width="1921" height="883">
<rect x="0.000488281" y="0.337402" width="1920" height="882" fill="#BDBDBD"/>
</mask>
<g mask="url(#mask0)">
<rect x="0.000488281" y="0.337402" width="1920" height="882" fill="url(#paint0_linear)"/>
<g opacity="0.1" clip-path="url(#clip0)">
<path d="M-2.96441 655.945C79.531 460.347 452.18 648.615 622.133 789.403C853.247 981.018 958.594 809.596 1094.14 774.553C1274.04 728.161 1340.19 947.734 1138.14 1075.32C735.255 1329.91 987.309 1767.27 560.976 1754.95C134.643 1742.64 -225.553 1300.14 -57.3621 1133.4C110.674 966.77 -62.9129 797.446 -2.96441 655.945Z" fill="url(#paint1_linear)"/>
</g>
<g opacity="0.2" clip-path="url(#clip1)">
<path d="M1619.56 17.6511L1619.56 17.6479C1619.74 16.3219 1619.9 14.999 1620.03 13.6792L1622.02 13.883C1622.29 11.2037 1622.49 8.53668 1622.6 5.88101L1620.6 5.79473C1620.72 3.13469 1620.75 0.485732 1620.72 -2.1532L1622.71 -2.18301C1622.67 -4.87118 1622.56 -7.5485 1622.37 -10.2159L1620.37 -10.0746C1620.19 -12.7168 1619.93 -15.3502 1619.6 -17.9758L1621.59 -18.2228C1621.25 -20.8839 1620.85 -23.5359 1620.39 -26.1799L1618.42 -25.8345C1617.96 -28.4405 1617.44 -31.0398 1616.87 -33.6335L1618.82 -34.0691C1618.23 -36.6847 1617.59 -39.2933 1616.89 -41.8959L1614.96 -41.3784C1614.28 -43.9317 1613.54 -46.4805 1612.75 -49.0257L1614.66 -49.6161C1613.88 -52.1698 1613.04 -54.7186 1612.16 -57.2635L1610.27 -56.6085C1609.4 -59.118 1608.48 -61.6248 1607.53 -64.1299L1609.4 -64.8414C1608.45 -67.3335 1607.46 -69.8226 1606.44 -72.3097L1604.59 -71.5494C1603.58 -74.0071 1602.54 -76.4638 1601.46 -78.9205L1603.29 -79.7225C1602.22 -82.1731 1601.12 -84.6225 1599.99 -87.0717L1598.17 -86.2346C1597.06 -88.6481 1595.92 -91.0623 1594.76 -93.4779L1596.56 -94.3439C1595.41 -96.7568 1594.22 -99.1701 1593.03 -101.585L1591.23 -100.695C1590.05 -103.084 1588.85 -105.474 1587.63 -107.867L1589.41 -108.774C1588.2 -111.157 1586.97 -113.543 1585.73 -115.932L1583.96 -115.012C1582.73 -117.388 1581.48 -119.768 1580.23 -122.153L1582.01 -123.081C1580.76 -125.45 1579.52 -127.822 1578.27 -130.198L1576.5 -129.267C1576.14 -129.948 1575.78 -130.629 1575.42 -131.312C1574.53 -133.003 1573.64 -134.698 1572.75 -136.394L1574.52 -137.325C1573.27 -139.697 1572.02 -142.074 1570.78 -144.457L1569 -143.531C1567.76 -145.909 1566.53 -148.294 1565.29 -150.685L1567.07 -151.601C1565.84 -153.986 1564.62 -156.377 1563.41 -158.775L1561.63 -157.873C1560.41 -160.271 1559.21 -162.678 1558.02 -165.092L1559.82 -165.976C1558.63 -168.383 1557.46 -170.797 1556.31 -173.221L1554.5 -172.36C1553.34 -174.79 1552.2 -177.229 1551.08 -179.679L1552.89 -180.512C1551.78 -182.951 1550.68 -185.4 1549.6 -187.858L1547.77 -187.057C1546.69 -189.526 1545.63 -192.007 1544.6 -194.499L1546.45 -195.264C1545.42 -197.744 1544.42 -200.234 1543.45 -202.735L1541.59 -202.012C1540.61 -204.528 1539.66 -207.057 1538.75 -209.598L1540.63 -210.275C1539.72 -212.799 1538.85 -215.336 1538.01 -217.886L1536.11 -217.261C1535.27 -219.826 1534.46 -222.405 1533.69 -224.998L1535.61 -225.566C1534.85 -228.137 1534.12 -230.721 1533.44 -233.32L1531.51 -232.814C1530.83 -235.427 1530.19 -238.055 1529.59 -240.698L1531.54 -241.138C1530.95 -243.749 1530.41 -246.376 1529.92 -249.017L1527.95 -248.649C1527.45 -251.307 1527 -253.981 1526.61 -256.671L1528.58 -256.964C1528.19 -259.604 1527.86 -262.26 1527.57 -264.932L1525.58 -264.719C1525.29 -267.408 1525.06 -270.113 1524.88 -272.835L1526.88 -272.965C1526.7 -275.623 1526.58 -278.297 1526.52 -280.989L1524.52 -280.943C1524.46 -283.637 1524.46 -286.348 1524.51 -289.077L1526.51 -289.036C1526.57 -291.702 1526.68 -294.385 1526.85 -297.085L1524.86 -297.212C1525.03 -299.889 1525.26 -302.582 1525.55 -305.293L1527.54 -305.079C1527.82 -307.736 1528.17 -310.41 1528.57 -313.102L1526.6 -313.401C1526.99 -316.037 1527.45 -318.69 1527.97 -321.36L1529.93 -320.979C1530.44 -323.609 1531.01 -326.255 1531.65 -328.92L1529.7 -329.382C1530.31 -331.961 1530.99 -334.555 1531.72 -337.165L1533.64 -336.627C1534.36 -339.207 1535.14 -341.803 1535.98 -344.417L1534.08 -345.029C1534.89 -347.545 1535.76 -350.075 1536.68 -352.62L1538.56 -351.938C1539.47 -354.461 1540.44 -356.999 1541.48 -359.554L1539.62 -360.302C1540.61 -362.743 1541.64 -365.198 1542.73 -367.667L1544.56 -366.858C1545.65 -369.305 1546.78 -371.766 1547.97 -374.242L1546.17 -375.11C1547.32 -377.488 1548.51 -379.88 1549.76 -382.285L1551.53 -381.365C1552.76 -383.724 1554.03 -386.098 1555.36 -388.485L1553.61 -389.456C1554.28 -390.658 1554.96 -391.863 1555.65 -393.072C1556.32 -394.236 1556.96 -395.405 1557.59 -396.578L1559.35 -395.639C1560.62 -398.024 1561.8 -400.427 1562.9 -402.848L1561.07 -403.67C1562.15 -406.062 1563.14 -408.471 1564.05 -410.895L1565.92 -410.195C1566.87 -412.719 1567.72 -415.261 1568.48 -417.819L1566.56 -418.391C1567.31 -420.905 1567.98 -423.436 1568.55 -425.981L1570.5 -425.541C1571.09 -428.147 1571.59 -430.768 1572 -433.403L1570.02 -433.711C1570.43 -436.305 1570.74 -438.912 1570.98 -441.533L1572.97 -441.356C1573.2 -444.003 1573.35 -446.661 1573.42 -449.331L1571.42 -449.379C1571.48 -451.996 1571.46 -454.624 1571.36 -457.262L1573.36 -457.338C1573.26 -459.995 1573.08 -462.662 1572.82 -465.337L1570.83 -465.143C1570.57 -467.734 1570.25 -470.334 1569.84 -472.942L1571.82 -473.247C1571.41 -475.892 1570.93 -478.543 1570.37 -481.2L1568.41 -480.789C1567.88 -483.32 1567.28 -485.858 1566.61 -488.401L1568.55 -488.909C1567.87 -491.481 1567.13 -494.059 1566.32 -496.639L1564.41 -496.041C1563.63 -498.534 1562.78 -501.03 1561.88 -503.53L1563.76 -504.213C1562.86 -506.691 1561.9 -509.172 1560.88 -511.655L1559.03 -510.895C1558.02 -513.351 1556.95 -515.81 1555.83 -518.269L1557.65 -519.101C1556.56 -521.474 1555.42 -523.848 1554.23 -526.222L1552.45 -525.325C1551.27 -527.677 1550.03 -530.03 1548.75 -532.382L1550.51 -533.34C1549.23 -535.674 1547.91 -538.007 1546.54 -540.338L1544.82 -539.323C1543.49 -541.568 1542.13 -543.811 1540.72 -546.052L1542.41 -547.118C1540.99 -549.376 1539.52 -551.631 1538.01 -553.883L1536.35 -552.769C1534.88 -554.948 1533.38 -557.126 1531.83 -559.3L1533.46 -560.459C1531.93 -562.605 1530.37 -564.748 1528.76 -566.887L1527.16 -565.686C1525.56 -567.811 1523.93 -569.933 1522.26 -572.051L1523.82 -573.291C1522.19 -575.361 1520.51 -577.427 1518.81 -579.489L1517.27 -578.212C1515.59 -580.232 1513.88 -582.247 1512.14 -584.256L1513.65 -585.567C1511.9 -587.588 1510.11 -589.603 1508.29 -591.613L1506.81 -590.27C1505.04 -592.22 1503.24 -594.165 1501.41 -596.104L1502.87 -597.476C1501.06 -599.395 1499.22 -601.308 1497.34 -603.214L1495.92 -601.813C1494.05 -603.711 1492.16 -605.602 1490.24 -607.487L1491.64 -608.915C1489.74 -610.776 1487.82 -612.631 1485.86 -614.479L1484.49 -613.026C1482.58 -614.828 1480.65 -616.624 1478.69 -618.413L1480.04 -619.89C1478.07 -621.687 1476.08 -623.476 1474.06 -625.259L1472.74 -623.759C1470.74 -625.523 1468.71 -627.28 1466.66 -629.029L1467.96 -630.55C1465.96 -632.258 1463.93 -633.957 1461.89 -635.649L1460.61 -634.107C1458.57 -635.793 1456.51 -637.47 1454.42 -639.14L1455.67 -640.701C1453.58 -642.377 1451.46 -644.045 1449.32 -645.704L1448.1 -644.124C1446.02 -645.737 1443.91 -647.343 1441.79 -648.94L1442.99 -650.538C1440.88 -652.13 1438.74 -653.714 1436.59 -655.288L1435.41 -653.673C1433.26 -655.242 1431.09 -656.803 1428.9 -658.354L1430.06 -659.986C1427.87 -661.531 1425.67 -663.068 1423.46 -664.595L1422.32 -662.947C1420.15 -664.438 1417.97 -665.921 1415.77 -667.394L1416.88 -669.056C1414.67 -670.534 1412.44 -672.003 1410.19 -673.463L1409.1 -671.785C1406.86 -673.24 1404.61 -674.685 1402.33 -676.12L1403.4 -677.811C1401.15 -679.228 1398.89 -680.635 1396.62 -682.032L1395.57 -680.327C1393.32 -681.708 1391.05 -683.079 1388.77 -684.44L1389.79 -686.158C1387.5 -687.524 1385.2 -688.879 1382.87 -690.225L1381.87 -688.494C1379.56 -689.836 1377.23 -691.167 1374.88 -692.487L1375.86 -694.23C1373.56 -695.527 1371.24 -696.814 1368.91 -698.09L1367.95 -696.335C1365.63 -697.607 1363.29 -698.868 1360.94 -700.119L1361.88 -701.884C1359.52 -703.139 1357.15 -704.382 1354.76 -705.615L1353.84 -703.838C1351.47 -705.063 1349.09 -706.277 1346.69 -707.48L1347.59 -709.268C1345.22 -710.455 1342.85 -711.632 1340.45 -712.798L1339.58 -711C1337.19 -712.162 1334.8 -713.314 1332.39 -714.454L1333.24 -716.262C1330.83 -717.406 1328.4 -718.538 1325.96 -719.659L1325.12 -717.841C1322.7 -718.953 1320.27 -720.053 1317.83 -721.141L1318.64 -722.968C1316.22 -724.047 1313.79 -725.115 1311.34 -726.172L1310.55 -724.336C1308.11 -725.389 1305.66 -726.431 1303.2 -727.461L1303.98 -729.305C1301.51 -730.338 1299.03 -731.359 1296.55 -732.368L1295.79 -730.515C1293.33 -731.515 1290.85 -732.503 1288.37 -733.479L1289.1 -735.341C1286.63 -736.311 1284.15 -737.269 1281.65 -738.215L1280.94 -736.346C1278.46 -737.289 1275.97 -738.22 1273.46 -739.139L1274.15 -741.017C1271.64 -741.938 1269.12 -742.847 1266.6 -743.744L1265.93 -741.858C1263.42 -742.748 1260.9 -743.624 1258.38 -744.488L1259.03 -746.38C1256.51 -747.24 1253.99 -748.088 1251.46 -748.922L1250.83 -747.023C1248.31 -747.855 1245.77 -748.675 1243.23 -749.481L1243.84 -751.387C1241.29 -752.196 1238.74 -752.992 1236.17 -753.774L1235.59 -751.861C1233.04 -752.638 1230.49 -753.402 1227.93 -754.152L1228.49 -756.072C1225.94 -756.82 1223.38 -757.554 1220.81 -758.275L1220.27 -756.35C1217.71 -757.069 1215.15 -757.775 1212.57 -758.467L1213.09 -760.398C1210.51 -761.092 1207.93 -761.773 1205.33 -762.439L1204.83 -760.502C1202.26 -761.165 1199.67 -761.814 1197.08 -762.449L1197.55 -764.391C1194.97 -765.025 1192.38 -765.644 1189.78 -766.249L1189.33 -764.301C1186.74 -764.905 1184.15 -765.494 1181.54 -766.069L1181.98 -768.022C1179.37 -768.599 1176.75 -769.161 1174.13 -769.709L1173.73 -767.752C1171.12 -768.297 1168.5 -768.829 1165.89 -769.345L1166.27 -771.307C1163.66 -771.823 1161.05 -772.323 1158.42 -772.809L1158.06 -770.843C1155.45 -771.327 1152.83 -771.797 1150.2 -772.252L1150.55 -774.223C1147.91 -774.679 1145.28 -775.121 1142.64 -775.547L1142.32 -773.573C1139.69 -773.998 1137.05 -774.408 1134.41 -774.802L1134.71 -776.78C1132.07 -777.174 1129.44 -777.552 1126.8 -777.916L1126.52 -775.934C1123.89 -776.296 1121.25 -776.643 1118.61 -776.975L1118.86 -778.959C1116.21 -779.291 1113.56 -779.608 1110.9 -779.909L1110.68 -777.922C1108.03 -778.222 1105.38 -778.507 1102.72 -778.775L1102.92 -780.765C1100.27 -781.033 1097.62 -781.285 1094.96 -781.522L1094.79 -779.53C1092.14 -779.765 1089.49 -779.985 1086.83 -780.188L1086.99 -782.182C1084.33 -782.387 1081.66 -782.575 1079 -782.746L1078.87 -780.75C1076.21 -780.921 1073.55 -781.076 1070.88 -781.214L1070.99 -783.212C1068.33 -783.35 1065.66 -783.472 1062.99 -783.577L1062.91 -781.578C1060.26 -781.683 1057.6 -781.771 1054.94 -781.842L1055 -783.842C1052.33 -783.913 1049.66 -783.968 1046.99 -784.006L1046.96 -782.006C1044.3 -782.044 1041.63 -782.065 1038.97 -782.068L1038.97 -784.068C1036.3 -784.072 1033.63 -784.058 1030.96 -784.027L1030.98 -782.028C1028.33 -781.997 1025.67 -781.949 1023.01 -781.884L1022.96 -783.883C1020.3 -783.818 1017.63 -783.735 1014.96 -783.635L1015.03 -781.636C1012.37 -781.536 1009.71 -781.418 1007.05 -781.283L1006.95 -783.28C1004.28 -783.144 1001.62 -782.991 998.948 -782.82L999.077 -780.824C996.427 -780.653 993.777 -780.465 991.127 -780.259L990.972 -782.253C988.313 -782.047 985.653 -781.822 982.994 -781.579L983.176 -779.587C980.526 -779.345 977.876 -779.085 975.226 -778.806L975.017 -780.795C972.359 -780.515 969.702 -780.217 967.045 -779.901L967.281 -777.915C964.647 -777.601 962.012 -777.269 959.379 -776.918L959.115 -778.901C956.473 -778.549 953.831 -778.178 951.19 -777.789L951.482 -775.81C948.85 -775.422 946.22 -775.015 943.59 -774.59L943.271 -776.564C940.632 -776.137 937.994 -775.691 935.358 -775.226L935.706 -773.256C933.092 -772.795 930.48 -772.315 927.87 -771.815L927.494 -773.78C924.877 -773.279 922.263 -772.76 919.649 -772.221L920.053 -770.262C917.45 -769.725 914.848 -769.169 912.248 -768.594L911.816 -770.547C909.206 -769.969 906.599 -769.372 903.994 -768.755L904.455 -766.809C903.72 -766.635 902.987 -766.46 902.253 -766.283C901.69 -766.147 901.127 -766.01 900.564 -765.873C899.21 -765.542 897.865 -765.207 896.529 -764.87L896.039 -766.809C893.359 -766.131 890.716 -765.441 888.112 -764.739L888.633 -762.808C886.039 -762.108 883.482 -761.396 880.964 -760.672L880.411 -762.594C877.881 -761.866 875.389 -761.127 872.933 -760.374L873.519 -758.462C870.974 -757.683 868.469 -756.89 866.004 -756.085L865.383 -757.986C862.751 -757.126 860.164 -756.252 857.621 -755.362L858.281 -753.474C855.75 -752.589 853.263 -751.69 850.819 -750.777L850.119 -752.65C847.661 -751.731 845.246 -750.798 842.873 -749.85L843.615 -747.992C841.095 -746.986 838.623 -745.963 836.198 -744.925L835.411 -746.763C832.894 -745.684 830.426 -744.589 828.008 -743.475L828.844 -741.659C826.442 -740.553 824.089 -739.431 821.784 -738.291L820.898 -740.084C818.512 -738.905 816.177 -737.708 813.891 -736.493L814.829 -734.727C812.414 -733.443 810.054 -732.139 807.75 -730.816L806.754 -732.55C804.43 -731.216 802.161 -729.861 799.946 -728.487L801 -726.787C798.767 -725.402 796.589 -723.997 794.465 -722.571L793.35 -724.232C791.068 -722.701 788.847 -721.147 786.685 -719.57L787.863 -717.954C785.723 -716.393 783.642 -714.809 781.619 -713.204L780.376 -714.771C778.283 -713.11 776.25 -711.426 774.276 -709.719L775.584 -708.206C773.55 -706.446 771.579 -704.662 769.67 -702.854L768.295 -704.306C766.364 -702.477 764.494 -700.624 762.685 -698.746L764.125 -697.358C762.278 -695.441 760.495 -693.498 758.772 -691.531L757.267 -692.848C755.499 -690.827 753.794 -688.781 752.149 -686.708L753.716 -685.465C752.086 -683.409 750.517 -681.328 749.006 -679.221L747.38 -680.386C745.814 -678.202 744.31 -675.992 742.866 -673.754L744.546 -672.669C743.12 -670.459 741.751 -668.222 740.44 -665.959L738.709 -666.962C737.374 -664.658 736.096 -662.328 734.873 -659.971L736.649 -659.05C735.437 -656.714 734.279 -654.351 733.174 -651.962L731.359 -652.802C730.243 -650.389 729.179 -647.951 728.166 -645.488L730.016 -644.727C729.018 -642.302 728.07 -639.852 727.168 -637.376L725.289 -638.061C724.378 -635.561 723.514 -633.036 722.695 -630.487L724.599 -629.875C723.799 -627.383 723.041 -624.866 722.323 -622.326L720.398 -622.87C719.678 -620.32 718.999 -617.747 718.358 -615.152L720.299 -614.672C719.667 -612.112 719.071 -609.528 718.511 -606.922L716.556 -607.342C716.003 -604.769 715.484 -602.175 714.997 -599.561L716.963 -599.194C716.479 -596.597 716.027 -593.979 715.604 -591.34L713.63 -591.656C713.212 -589.049 712.823 -586.423 712.461 -583.778L714.442 -583.507C714.086 -580.905 713.755 -578.283 713.448 -575.643L711.461 -575.874C711.153 -573.221 710.868 -570.549 710.605 -567.86L712.596 -567.666C712.342 -565.067 712.108 -562.451 711.894 -559.817L709.9 -559.98C709.685 -557.339 709.488 -554.681 709.308 -552.007L711.304 -551.873C711.126 -549.226 710.964 -546.563 710.817 -543.884L708.82 -543.994C708.676 -541.369 708.547 -538.729 708.43 -536.075L710.428 -535.987C710.311 -533.339 710.206 -530.677 710.112 -527.999L708.114 -528.069C708.021 -525.417 707.938 -522.751 707.865 -520.071L709.864 -520.016C709.792 -517.387 709.728 -514.744 709.671 -512.087L707.672 -512.13C707.615 -509.47 707.565 -506.797 707.521 -504.111L709.52 -504.078C709.477 -501.431 709.438 -498.771 709.404 -496.098L707.404 -496.124C707.37 -493.485 707.339 -490.835 707.311 -488.173L709.311 -488.152C709.297 -486.854 709.284 -485.554 709.271 -484.251C709.257 -482.882 709.244 -481.51 709.231 -480.135L707.232 -480.153C707.215 -478.418 707.199 -476.678 707.183 -474.933C707.175 -474.012 707.167 -473.09 707.158 -472.167L709.158 -472.149C709.134 -469.508 709.109 -466.856 709.082 -464.194L707.082 -464.214C707.055 -461.553 707.027 -458.881 706.995 -456.2L708.995 -456.176C708.963 -453.519 708.928 -450.853 708.889 -448.177L706.889 -448.206C706.851 -445.565 706.808 -442.915 706.759 -440.256L708.759 -440.219C708.71 -437.557 708.656 -434.886 708.594 -432.205L706.595 -432.251C706.534 -429.591 706.467 -426.923 706.391 -424.245L708.391 -424.189C708.316 -421.546 708.234 -418.895 708.143 -416.235L706.144 -416.303C706.053 -413.648 705.953 -410.984 705.843 -408.312L707.841 -408.23C707.731 -405.56 707.611 -402.882 707.48 -400.195L705.482 -400.293C705.353 -397.658 705.213 -395.016 705.062 -392.366L707.059 -392.252C706.907 -389.597 706.743 -386.934 706.566 -384.264L704.57 -384.397C704.393 -381.733 704.204 -379.062 704 -376.385L705.994 -376.233C705.793 -373.592 705.579 -370.945 705.349 -368.291L703.357 -368.463C703.128 -365.824 702.885 -363.178 702.627 -360.525L704.617 -360.331C704.358 -357.672 704.083 -355.006 703.791 -352.333L701.803 -352.55C701.515 -349.913 701.21 -347.27 700.889 -344.622L702.874 -344.381C702.554 -341.748 702.217 -339.109 701.862 -336.465L699.879 -336.732C699.525 -334.096 699.153 -331.455 698.762 -328.809L700.74 -328.516C700.349 -325.869 699.938 -323.216 699.508 -320.558L697.534 -320.878C697.112 -318.276 696.672 -315.669 696.211 -313.057L698.18 -312.71C697.718 -310.088 697.235 -307.462 696.731 -304.832L694.767 -305.208C694.265 -302.587 693.742 -299.961 693.196 -297.332L695.155 -296.926C694.616 -294.326 694.056 -291.723 693.473 -289.115L691.521 -289.551C690.945 -286.972 690.347 -284.39 689.727 -281.803L691.672 -281.336C691.048 -278.739 690.402 -276.138 689.733 -273.533L687.796 -274.032C687.131 -271.447 686.443 -268.858 685.731 -266.266L687.659 -265.736C686.96 -263.191 686.237 -260.642 685.49 -258.09L683.57 -258.652C682.826 -256.11 682.058 -253.566 681.266 -251.018L683.175 -250.424C682.379 -247.865 681.558 -245.303 680.711 -242.738L678.812 -243.365C677.982 -240.85 677.126 -238.331 676.245 -235.81L678.133 -235.15C677.261 -232.655 676.365 -230.158 675.442 -227.658L673.566 -228.35C672.647 -225.861 671.703 -223.369 670.733 -220.875L672.596 -220.149C671.622 -217.644 670.621 -215.137 669.592 -212.627L667.741 -213.385C666.744 -210.951 665.721 -208.515 664.672 -206.077L666.509 -205.286C665.464 -202.858 664.393 -200.427 663.295 -197.995L661.472 -198.817C660.379 -196.395 659.26 -193.972 658.113 -191.546L659.921 -190.691C658.769 -188.255 657.59 -185.817 656.382 -183.377L654.59 -184.264C653.43 -181.919 652.243 -179.573 651.031 -177.225L652.807 -176.307C651.595 -173.96 650.356 -171.611 649.09 -169.261L647.329 -170.21C646.069 -167.87 644.781 -165.529 643.466 -163.186L645.21 -162.207C643.889 -159.854 642.541 -157.501 641.165 -155.146L639.438 -156.155C638.119 -153.899 636.774 -151.641 635.403 -149.383L637.112 -148.345C635.744 -146.092 634.35 -143.839 632.929 -141.584L631.237 -142.651C629.822 -140.406 628.381 -138.16 626.912 -135.913L628.586 -134.819C627.111 -132.563 625.609 -130.306 624.079 -128.049L622.423 -129.171C620.947 -126.993 619.445 -124.815 617.916 -122.635L619.553 -121.487C618.047 -119.34 616.515 -117.192 614.957 -115.044L613.338 -116.218C611.787 -114.079 610.209 -111.939 608.605 -109.798L610.206 -108.599C608.596 -106.45 606.959 -104.301 605.296 -102.152L603.714 -103.376C602.074 -101.258 600.408 -99.1384 598.715 -97.0191L600.278 -95.7709C598.654 -93.7372 597.005 -91.7035 595.332 -89.6696L593.787 -90.9403C592.12 -88.9139 590.428 -86.8874 588.71 -84.8607L590.236 -83.5678C588.513 -81.5338 586.764 -79.4998 584.99 -77.466L583.483 -78.7806C581.715 -76.7538 579.922 -74.7272 578.103 -72.7005L579.591 -71.3645C578.678 -70.3475 577.759 -69.3304 576.833 -68.3133L576.832 -68.3129C575.935 -67.3284 575.049 -66.3433 574.172 -65.3578L572.678 -66.6868C570.914 -64.7036 569.192 -62.7181 567.51 -60.731L569.036 -59.4389C567.358 -57.4556 565.72 -55.4709 564.122 -53.4852L562.564 -54.739C560.888 -52.656 559.256 -50.5717 557.667 -48.4869L559.258 -47.2747C557.68 -45.2039 556.145 -43.133 554.653 -41.0623L553.031 -42.2315C551.473 -40.0702 549.962 -37.9091 548.496 -35.7487L550.151 -34.6257C548.683 -32.4615 547.26 -30.2985 545.883 -28.1374L544.197 -29.212C542.772 -26.9762 541.396 -24.7422 540.067 -22.5107L541.785 -21.4873C540.444 -19.234 539.151 -16.9837 537.906 -14.7372L536.157 -15.7065C534.875 -13.3928 533.644 -11.0826 532.463 -8.77711L534.242 -7.86514C533.046 -5.52919 531.901 -3.19847 530.806 -0.873625L528.997 -1.72528C527.871 0.667537 526.798 3.05442 525.778 5.43429L527.616 6.22234C526.583 8.63216 525.604 11.0343 524.679 13.4277L522.814 12.7067C521.859 15.177 520.961 17.6386 520.118 20.0902L522.009 20.7405C521.159 23.2128 520.366 25.6744 519.629 28.1241L517.714 27.548C516.949 30.0906 516.244 32.6211 515.597 35.1379L517.534 35.6355C516.887 38.156 516.299 40.6622 515.769 43.1527L513.813 42.7366C513.259 45.342 512.767 47.9311 512.338 50.5021L514.311 50.8315C513.882 53.3998 513.515 55.9494 513.21 58.4786L511.224 58.2388C510.906 60.875 510.653 63.4898 510.464 66.0818L512.459 66.2271C512.269 68.8347 512.145 71.4182 512.085 73.9757L510.085 73.9288C510.024 76.562 510.029 79.1687 510.1 81.7469L512.099 81.6918C512.172 84.3146 512.313 86.9069 512.521 89.4665L510.527 89.6286C510.742 92.2614 511.026 94.861 511.378 97.4249L513.359 97.1527C513.713 99.7291 514.137 102.268 514.629 104.768L512.666 105.154C513.178 107.758 513.763 110.32 514.418 112.838L516.354 112.334C517.008 114.85 517.734 117.321 518.53 119.743L516.629 120.367C517.451 122.869 518.345 125.321 519.309 127.72L521.165 126.975C522.136 129.392 523.18 131.754 524.294 134.058L522.494 134.929C523.643 137.306 524.865 139.623 526.159 141.878L527.894 140.883C529.18 143.126 530.538 145.304 531.964 147.416L530.307 148.535C531.78 150.717 533.326 152.829 534.941 154.868L536.508 153.626C538.112 155.652 539.785 157.603 541.525 159.477L540.059 160.838C541.847 162.764 543.704 164.61 545.628 166.374L546.979 164.9C548.872 166.636 550.83 168.29 552.851 169.857L551.625 171.437C553.695 173.044 555.83 174.562 558.026 175.989L559.116 174.312C561.261 175.706 563.467 177.01 565.729 178.222L564.785 179.985C567.083 181.216 569.44 182.354 571.851 183.394L572.644 181.558C574.984 182.568 577.377 183.484 579.82 184.303L579.185 186.199C581.655 187.028 584.175 187.759 586.743 188.39L587.22 186.447C589.684 187.053 592.193 187.564 594.746 187.977L594.426 189.951C596.978 190.365 599.571 190.683 602.203 190.902L602.369 188.909C604.901 189.119 607.471 189.237 610.076 189.259L610.059 191.259C612.65 191.281 615.275 191.209 617.93 191.042L617.805 189.046C620.323 188.888 622.87 188.642 625.446 188.305L625.705 190.288C628.268 189.953 630.857 189.531 633.47 189.019L633.085 187.056C635.581 186.567 638.101 185.994 640.643 185.335L641.145 187.271C643.625 186.629 646.126 185.906 648.645 185.101L648.036 183.196C650.476 182.416 652.935 181.558 655.411 180.619L656.12 182.489C658.511 181.583 660.915 180.604 663.334 179.55L662.535 177.717C664.876 176.696 667.231 175.604 669.599 174.439L670.482 176.234C672.79 175.098 675.109 173.895 677.438 172.622L676.479 170.867C677.631 170.238 678.786 169.591 679.943 168.926C681.081 168.272 682.212 167.605 683.338 166.926L684.371 168.638C686.646 167.265 688.894 165.843 691.12 164.375L690.018 162.706C692.211 161.259 694.382 159.768 696.533 158.235L697.694 159.864C699.853 158.326 701.991 156.748 704.112 155.133L702.9 153.542C704.996 151.946 707.074 150.314 709.139 148.649L710.395 150.206C712.458 148.541 714.506 146.845 716.541 145.121L715.249 143.595C717.259 141.893 719.258 140.161 721.248 138.406L722.571 139.905C724.56 138.15 726.54 136.37 728.511 134.571L727.163 133.094C729.115 131.312 731.06 129.511 733.001 127.691L734.368 129.151C736.302 127.338 738.231 125.509 740.157 123.668L738.775 122.222C740.689 120.391 742.602 118.547 744.515 116.693L745.907 118.13C747.813 116.282 749.718 114.425 751.625 112.563L750.227 111.132C751.667 109.726 753.107 108.318 754.55 106.906L755.928 105.558L757.327 106.987C759.226 105.13 761.129 103.27 763.038 101.411L761.643 99.9781C763.548 98.1232 765.459 96.2685 767.379 94.4177L768.767 95.8575C770.68 94.0137 772.6 92.1741 774.531 90.3422L773.154 88.8914C775.087 87.0573 777.03 85.2301 778.987 83.4132L780.348 84.8787C782.295 83.0698 784.255 81.2718 786.229 79.4878L784.888 78.004C786.868 76.2148 788.862 74.439 790.874 72.68L792.191 74.1856C794.192 72.4353 796.21 70.7024 798.246 68.9899L796.959 67.4592C799.004 65.7392 801.068 64.0391 803.154 62.3624L804.407 63.921C806.478 62.2555 808.57 60.6136 810.684 58.9988L809.47 57.4094C811.596 55.785 813.746 54.1872 815.921 52.6192L817.091 54.2416C819.245 52.6882 821.424 51.1649 823.63 49.6747L822.51 48.0175C824.727 46.5194 826.971 45.0541 829.245 43.6248L830.309 45.318C832.558 43.9039 834.836 42.5259 837.143 41.1871L836.139 39.4572C838.452 38.1156 840.795 36.8127 843.17 35.5515L844.108 37.3181C846.448 36.0759 848.819 34.875 851.223 33.7184L850.356 31.9161C852.771 30.7545 855.22 29.637 857.704 28.5665L858.495 30.4033C860.918 29.3595 863.374 28.3612 865.865 27.4112L865.153 25.5425C867.651 24.59 870.184 23.6854 872.756 22.8316L873.386 24.7298C875.891 23.8979 878.432 23.1148 881.011 22.3831L880.465 20.459C883.022 19.7333 885.617 19.0575 888.249 18.4344L888.71 20.3806C891.289 19.7699 893.906 19.2102 896.562 18.7041L896.187 16.7395C898.781 16.2452 901.41 15.8015 904.077 15.4106L904.367 17.3894C906.978 17.0066 909.625 16.6751 912.31 16.3966L912.104 14.4072C914.736 14.1343 917.403 13.912 920.108 13.7422L920.233 15.7382C922.855 15.5737 925.512 15.4589 928.206 15.3958L928.159 13.3963C930.808 13.3343 933.492 13.3217 936.212 13.3603L936.183 15.3601C938.802 15.3973 941.454 15.4824 944.141 15.6169L944.241 13.6194C946.887 13.7519 949.566 13.9318 952.279 14.1607L952.111 16.1536C954.719 16.3736 957.36 16.6392 960.033 16.9518L960.265 14.9654C962.889 15.2721 965.544 15.6238 968.231 16.0213L967.938 17.9998C970.538 18.3845 973.167 18.8126 975.828 19.2853L976.178 17.3161C978.764 17.7755 981.378 18.2765 984.022 18.8202L983.619 20.7792C986.217 21.3136 988.845 21.8897 991.502 22.5083L991.956 20.5604C994.49 21.1504 997.051 21.7789 999.638 22.4465L999.138 24.3831C1001.71 25.0468 1004.31 25.7497 1006.94 26.4924L1007.48 24.5678C1009.99 25.2781 1012.53 26.0245 1015.09 26.8079L1014.51 28.7205C1017.02 29.4874 1019.55 30.29 1022.11 31.1289L1022.73 29.2285C1025.27 30.0608 1027.83 30.9287 1030.42 31.8327L1029.76 33.7207C1032.2 34.5725 1034.66 35.4567 1037.14 36.3738L1037.84 34.4976C1040.33 35.4187 1042.85 36.3728 1045.39 37.3603L1044.66 39.2243C1047.12 40.1789 1049.59 41.165 1052.09 42.1832L1052.85 40.3311C1055.26 41.3146 1057.7 42.3279 1060.15 43.3712L1059.37 45.2119C1061.81 46.2514 1064.28 47.321 1066.77 48.4212L1067.58 46.5922C1068.82 47.1442 1070.08 47.7038 1071.34 48.2712M1619.56 17.6511L1070.51 50.0945M1619.56 17.6511C1619.39 18.983 1619.2 20.3007 1618.99 21.6044L1620.96 21.9229C1620.53 24.5697 1620.03 27.1608 1619.47 29.6972L1617.51 29.2592C1616.94 31.8136 1616.29 34.3102 1615.58 36.7501L1617.5 37.3131C1616.74 39.8806 1615.91 42.3877 1615.01 44.8353L1613.13 44.1416C1612.23 46.5861 1611.25 48.9693 1610.2 51.2923L1612.02 52.1183C1610.92 54.5408 1609.74 56.9 1608.49 59.1969L1606.73 58.2384C1605.49 60.5162 1604.17 62.7314 1602.77 64.8852L1604.45 65.9725C1603.01 68.1911 1601.5 70.346 1599.91 72.4382L1598.32 71.228C1596.75 73.2843 1595.12 75.2794 1593.41 77.2144L1594.91 78.5386C1593.16 80.512 1591.35 82.4236 1589.46 84.2745L1588.06 82.8463C1586.22 84.6461 1584.32 86.3882 1582.35 88.0737L1583.65 89.5939C1581.65 91.3033 1579.58 92.9547 1577.45 94.5492L1576.25 92.9479C1574.2 94.4823 1572.09 95.9641 1569.91 97.394L1571.01 99.0645C1568.82 100.512 1566.56 101.906 1564.24 103.248L1563.24 101.518C1561.03 102.8 1558.76 104.035 1556.45 105.223L1557.36 107.003C1555.02 108.204 1552.62 109.358 1550.18 110.465L1549.35 108.643C1547.02 109.698 1544.65 110.711 1542.23 111.681L1542.97 113.538C1540.53 114.517 1538.05 115.454 1535.52 116.349L1534.85 114.464C1532.43 115.32 1529.98 116.138 1527.48 116.919L1528.08 118.827C1525.57 119.611 1523.03 120.357 1520.45 121.066L1519.92 119.137C1517.43 119.821 1514.91 120.47 1512.36 121.085L1512.83 123.03C1510.28 123.643 1507.71 124.222 1505.1 124.769L1504.69 122.811C1502.15 123.345 1499.58 123.847 1496.98 124.318L1497.33 126.286C1494.77 126.751 1492.18 127.186 1489.57 127.591L1489.26 125.615C1486.67 126.016 1484.05 126.389 1481.41 126.734L1481.67 128.717C1479.1 129.053 1476.51 129.363 1473.89 129.646L1473.67 127.658C1471.07 127.939 1468.45 128.195 1465.8 128.426L1465.98 130.418C1463.38 130.645 1460.76 130.847 1458.12 131.025L1457.98 129.03C1455.39 129.206 1452.77 129.358 1450.14 129.487L1450.23 131.485C1447.6 131.614 1444.95 131.721 1442.28 131.805L1442.22 129.806C1439.63 129.888 1437.02 129.949 1434.4 129.99L1434.43 131.989C1431.8 132.03 1429.16 132.05 1426.5 132.049L1426.5 130.049C1423.89 130.049 1421.26 130.028 1418.63 129.989L1418.6 131.989C1415.98 131.95 1413.35 131.892 1410.71 131.815L1410.77 129.816C1408.14 129.74 1405.49 129.645 1402.84 129.533L1402.76 131.531C1400.15 131.42 1397.53 131.292 1394.9 131.147L1395.01 129.15C1392.4 129.006 1389.78 128.845 1387.14 128.667L1387.01 130.663C1384.38 130.485 1381.74 130.291 1379.09 130.082L1379.25 128.088C1376.65 127.882 1374.04 127.66 1371.43 127.423L1371.25 129.415C1368.63 129.177 1366 128.924 1363.36 128.657L1363.56 126.667C1360.95 126.402 1358.34 126.122 1355.72 125.828L1355.49 127.815C1352.89 127.523 1350.28 127.216 1347.66 126.896L1347.9 124.91C1345.29 124.591 1342.68 124.258 1340.06 123.911L1339.8 125.894C1337.19 125.549 1334.58 125.19 1331.97 124.819L1332.25 122.839C1329.65 122.47 1327.05 122.089 1324.45 121.695L1324.15 123.672C1321.55 123.277 1318.94 122.87 1316.32 122.45L1316.64 120.475C1314.05 120.059 1311.46 119.631 1308.87 119.191L1308.53 121.163C1305.94 120.723 1303.34 120.271 1300.74 119.808L1301.1 117.839C1298.5 117.377 1295.91 116.903 1293.32 116.419L1292.96 118.385C1290.37 117.901 1287.78 117.406 1285.19 116.901L1285.58 114.938C1283 114.433 1280.42 113.918 1277.84 113.393L1277.44 115.353C1274.86 114.827 1272.28 114.29 1269.7 113.744L1270.11 111.787C1267.54 111.241 1264.97 110.686 1262.4 110.12L1261.97 112.073C1259.39 111.507 1256.82 110.931 1254.25 110.345L1254.7 108.395C1252.13 107.81 1249.57 107.216 1247.01 106.613L1246.55 108.559C1243.98 107.953 1241.42 107.337 1238.85 106.712L1239.33 104.769C1236.77 104.146 1234.22 103.514 1231.67 102.873L1231.19 104.813C1228.63 104.169 1226.07 103.516 1223.53 102.856L1224.03 100.92C1221.47 100.257 1218.92 99.5857 1216.38 98.9066L1215.87 100.839C1213.32 100.158 1210.78 99.4702 1208.25 98.7744L1208.78 96.8459C1206.23 96.1461 1203.7 95.4386 1201.17 94.7237L1200.63 96.6483C1198.08 95.9281 1195.54 95.2005 1193.01 94.4658L1193.57 92.5453C1191.05 91.8119 1188.53 91.0714 1186.03 90.3242L1185.46 92.2408C1182.91 91.4818 1180.38 90.7158 1177.86 89.9433L1178.45 88.0311C1175.92 87.2572 1173.41 86.4767 1170.91 85.6899L1170.31 87.5977C1167.8 86.8086 1165.3 86.0132 1162.82 85.2119L1163.43 83.3085C1160.9 82.4916 1158.38 81.6685 1155.88 80.8398L1155.25 82.7384C1152.74 81.908 1150.25 81.0719 1147.77 80.2303L1148.41 78.3365C1145.91 77.4879 1143.43 76.6339 1140.96 75.7749L1140.3 77.6637C1137.79 76.7881 1135.29 75.9072 1132.81 75.0215L1133.48 73.138C1131.01 72.254 1128.55 71.3653 1126.11 70.4722L1125.42 72.3501C1122.92 71.4323 1120.43 70.5099 1117.97 69.5833L1118.67 67.7111C1116.19 66.7794 1113.73 65.8435 1111.3 64.9039L1110.58 66.7698C1108.11 65.819 1105.67 64.8643 1103.25 63.9063L1103.99 62.0468C1101.5 61.0626 1099.04 60.075 1096.61 59.0843L1095.86 60.9367C1093.42 59.9437 1091 58.9476 1088.62 57.9489M1619.56 17.6511L1088.62 57.9489M1071.34 48.2712L1070.51 50.0945M1071.34 48.2712C1071.34 48.271 1071.33 48.271 1071.33 48.2708L1070.51 50.0945M1071.34 48.2712C1072.5 48.797 1073.68 49.3226 1074.86 49.8478L1074.05 51.676M1070.51 50.0945C1071.68 50.622 1072.86 51.1492 1074.05 51.676M1074.05 51.676C1076.43 52.7297 1078.83 53.7818 1081.27 54.8317L1082.06 52.9948C1084.48 54.0334 1086.92 55.07 1089.39 56.1039L1088.62 57.9489M1074.05 51.676L1088.62 57.9489" stroke="white" stroke-width="4" stroke-linejoin="round" stroke-dasharray="8 8"/>
</g>
<g opacity="0.2" clip-path="url(#clip2)">
<path d="M170.106 1609.84L170.109 1609.84C171.371 1610.28 172.634 1610.7 173.897 1611.11L173.289 1613.01C175.855 1613.83 178.426 1614.57 181.001 1615.23L181.496 1613.29C184.076 1613.95 186.661 1614.53 189.252 1615.03L188.87 1616.99C191.509 1617.51 194.154 1617.94 196.803 1618.3L197.074 1616.32C199.699 1616.68 202.329 1616.97 204.966 1617.19L204.8 1619.18C207.473 1619.4 210.15 1619.56 212.833 1619.65L212.9 1617.65C215.544 1617.74 218.195 1617.76 220.852 1617.73L220.877 1619.73C223.557 1619.69 226.242 1619.6 228.932 1619.45L228.823 1617.45C231.462 1617.31 234.108 1617.11 236.76 1616.86L236.946 1618.86C239.607 1618.61 242.273 1618.31 244.945 1617.97L244.692 1615.99C247.327 1615.65 249.968 1615.27 252.615 1614.85L252.928 1616.83C255.562 1616.41 258.201 1615.96 260.844 1615.47L260.48 1613.5C263.093 1613.02 265.712 1612.5 268.337 1611.95L268.746 1613.91C271.364 1613.36 273.988 1612.79 276.617 1612.18L276.17 1610.23C278.761 1609.64 281.357 1609.02 283.96 1608.38L284.437 1610.33C287.037 1609.69 289.641 1609.03 292.25 1608.35L291.748 1606.41C294.329 1605.74 296.915 1605.06 299.507 1604.36L300.029 1606.29C302.611 1605.59 305.198 1604.88 307.789 1604.16L307.254 1602.23C309.832 1601.51 312.417 1600.79 315.007 1600.05L315.551 1601.98C318.125 1601.25 320.702 1600.52 323.285 1599.78L322.737 1597.86C323.477 1597.65 324.218 1597.43 324.959 1597.22C326.798 1596.7 328.639 1596.17 330.483 1595.65L331.03 1597.57C333.608 1596.84 336.19 1596.11 338.777 1595.38L338.236 1593.45C340.818 1592.73 343.406 1592.01 345.999 1591.29L346.53 1593.22C349.117 1592.51 351.707 1591.8 354.303 1591.11L353.787 1589.18C356.383 1588.48 358.985 1587.8 361.593 1587.13L362.089 1589.07C364.688 1588.41 367.292 1587.76 369.9 1587.12L369.429 1585.18C372.045 1584.54 374.667 1583.93 377.294 1583.33L377.737 1585.28C380.354 1584.69 382.976 1584.12 385.603 1583.57L385.194 1581.61C387.833 1581.06 390.478 1580.53 393.129 1580.04L393.498 1582C396.136 1581.51 398.778 1581.04 401.426 1580.6L401.101 1578.63C403.764 1578.19 406.433 1577.78 409.107 1577.41L409.383 1579.39C412.041 1579.02 414.703 1578.69 417.371 1578.39L417.149 1576.4C419.833 1576.1 422.522 1575.84 425.218 1575.62L425.38 1577.62C428.053 1577.4 430.731 1577.22 433.414 1577.09L433.316 1575.09C436.013 1574.96 438.717 1574.87 441.426 1574.83L441.456 1576.83C444.132 1576.79 446.814 1576.8 449.501 1576.86L449.544 1574.86C452.248 1574.92 454.957 1575.03 457.672 1575.19L457.551 1577.19C460.215 1577.35 462.884 1577.56 465.558 1577.83L465.758 1575.84C468.448 1576.11 471.144 1576.44 473.845 1576.82L473.562 1578.8C476.199 1579.18 478.841 1579.61 481.487 1580.11L481.853 1578.14C484.503 1578.63 487.157 1579.19 489.816 1579.8L489.365 1581.75C491.963 1582.35 494.566 1583.01 497.173 1583.73L497.708 1581.81C500.292 1582.52 502.881 1583.3 505.474 1584.14L504.857 1586.04C507.398 1586.87 509.945 1587.76 512.496 1588.71L513.194 1586.83C515.693 1587.76 518.195 1588.76 520.701 1589.81L519.925 1591.66C522.394 1592.7 524.867 1593.8 527.345 1594.96L528.197 1593.15C530.595 1594.28 532.996 1595.47 535.401 1596.72L534.478 1598.5C536.855 1599.73 539.236 1601.03 541.621 1602.39L542.612 1600.65C544.907 1601.96 547.205 1603.33 549.507 1604.75L548.453 1606.45C550.734 1607.87 553.019 1609.34 555.308 1610.87L556.421 1609.21C558.607 1610.68 560.797 1612.2 562.989 1613.77L561.822 1615.4C563.994 1616.96 566.17 1618.57 568.349 1620.25L569.568 1618.66C571.66 1620.27 573.756 1621.93 575.854 1623.65L574.588 1625.2C576.646 1626.88 578.707 1628.61 580.772 1630.4L582.081 1628.89C583.12 1629.79 584.16 1630.7 585.201 1631.63C586.203 1632.52 587.214 1633.39 588.234 1634.25L586.952 1635.78C589.025 1637.51 591.135 1639.16 593.28 1640.73L594.46 1639.11C596.579 1640.66 598.732 1642.12 600.919 1643.51L599.849 1645.2C602.126 1646.64 604.439 1648 606.786 1649.27L607.738 1647.51C610.045 1648.76 612.386 1649.93 614.759 1651.01L613.927 1652.83C616.357 1653.94 618.82 1654.97 621.315 1655.91L622.022 1654.04C624.477 1654.97 626.964 1655.82 629.481 1656.58L628.899 1658.49C631.441 1659.27 634.012 1659.96 636.612 1660.57L637.07 1658.62C639.617 1659.22 642.193 1659.74 644.797 1660.19L644.46 1662.16C647.081 1662.61 649.728 1662.98 652.4 1663.27L652.618 1661.28C655.206 1661.57 657.818 1661.78 660.454 1661.92L660.347 1663.92C663.018 1664.06 665.713 1664.13 668.428 1664.13L668.428 1662.13C671.014 1662.13 673.621 1662.07 676.247 1661.93L676.346 1663.93C679.003 1663.8 681.678 1663.6 684.37 1663.34L684.176 1661.35C686.776 1661.1 689.393 1660.78 692.026 1660.41L692.308 1662.39C694.918 1662.02 697.544 1661.59 700.182 1661.1L699.819 1659.13C702.43 1658.65 705.054 1658.11 707.692 1657.52L708.133 1659.47C710.679 1658.89 713.236 1658.26 715.803 1657.59L715.293 1655.65C717.837 1654.98 720.393 1654.26 722.959 1653.49L723.536 1655.4C726.081 1654.63 728.636 1653.82 731.199 1652.95L730.56 1651.06C733.028 1650.23 735.503 1649.35 737.987 1648.43L738.682 1650.3C741.184 1649.38 743.693 1648.4 746.208 1647.39L745.458 1645.53C747.892 1644.55 750.331 1643.52 752.777 1642.45L753.577 1644.29C755.991 1643.23 758.41 1642.14 760.833 1641.01L759.986 1639.19C762.394 1638.07 764.806 1636.9 767.222 1635.7L768.114 1637.49C770.477 1636.31 772.842 1635.1 775.21 1633.85L774.277 1632.08C776.598 1630.86 778.921 1629.6 781.246 1628.31L782.218 1630.05C784.556 1628.75 786.895 1627.42 789.236 1626.05L788.226 1624.32C790.497 1622.99 792.77 1621.63 795.043 1620.24L796.088 1621.95C798.337 1620.57 800.588 1619.16 802.838 1617.72L801.76 1616.04C803.999 1614.6 806.239 1613.14 808.478 1611.65L809.587 1613.31C811.799 1611.83 814.01 1610.33 816.22 1608.8L815.08 1607.15C817.235 1605.66 819.39 1604.14 821.543 1602.59L822.712 1604.21C824.874 1602.65 827.035 1601.07 829.194 1599.46L827.998 1597.86C830.135 1596.26 832.27 1594.64 834.403 1592.99L835.626 1594.58C837.707 1592.97 839.787 1591.34 841.863 1589.68L840.616 1588.11C842.684 1586.46 844.749 1584.79 846.812 1583.09L848.083 1584.64C850.153 1582.93 852.22 1581.2 854.283 1579.45L852.988 1577.92C854.995 1576.22 856.998 1574.49 858.997 1572.74L860.314 1574.25C862.307 1572.5 864.295 1570.74 866.279 1568.95L864.941 1567.46C866.918 1565.68 868.89 1563.88 870.858 1562.06L872.218 1563.52C874.178 1561.71 876.133 1559.87 878.084 1558.01L876.704 1556.56C878.608 1554.75 880.508 1552.91 882.402 1551.06L883.801 1552.49C885.701 1550.63 887.597 1548.75 889.486 1546.85L888.068 1545.44C889.952 1543.55 891.829 1541.64 893.701 1539.7L895.137 1541.1C896.984 1539.19 898.826 1537.27 900.661 1535.32L899.207 1533.95C901.021 1532.03 902.828 1530.09 904.629 1528.14L906.1 1529.49C907.907 1527.53 909.708 1525.55 911.501 1523.56L910.014 1522.22C911.802 1520.23 913.583 1518.22 915.357 1516.2L916.861 1517.52C918.603 1515.53 920.338 1513.53 922.066 1511.51L920.546 1510.21C922.268 1508.19 923.982 1506.17 925.689 1504.12L927.224 1505.4C928.936 1503.35 930.64 1501.29 932.336 1499.21L930.786 1497.94C932.471 1495.87 934.149 1493.79 935.819 1491.69L937.384 1492.94C939.032 1490.86 940.672 1488.78 942.304 1486.68L940.725 1485.45C942.352 1483.36 943.971 1481.25 945.582 1479.12L947.175 1480.33C948.791 1478.2 950.398 1476.06 951.996 1473.9L950.388 1472.71C951.973 1470.57 953.549 1468.42 955.116 1466.25L956.737 1467.42C958.29 1465.27 959.835 1463.11 961.371 1460.93L959.737 1459.78C961.269 1457.61 962.791 1455.43 964.304 1453.23L965.951 1454.37C967.468 1452.17 968.976 1449.95 970.474 1447.72L968.815 1446.61C970.3 1444.4 971.775 1442.18 973.241 1439.95L974.913 1441.05C976.37 1438.83 977.817 1436.59 979.255 1434.35L977.571 1433.27C979.004 1431.03 980.428 1428.79 981.841 1426.52L983.537 1427.58C984.954 1425.32 986.361 1423.04 987.758 1420.75L986.05 1419.71C987.435 1417.44 988.81 1415.15 990.173 1412.86L991.893 1413.88C993.251 1411.6 994.598 1409.3 995.935 1407L994.204 1405.99C995.537 1403.69 996.859 1401.38 998.17 1399.06L999.912 1400.05C1001.23 1397.72 1002.53 1395.38 1003.82 1393.03L1002.07 1392.07C1003.35 1389.74 1004.63 1387.39 1005.89 1385.04L1007.65 1385.99C1008.9 1383.64 1010.15 1381.29 1011.38 1378.93L1009.61 1378C1010.84 1375.64 1012.06 1373.28 1013.26 1370.9L1015.04 1371.81C1016.25 1369.42 1017.45 1367.03 1018.64 1364.63L1016.84 1363.74C1018.02 1361.36 1019.19 1358.96 1020.34 1356.55L1022.14 1357.42C1023.29 1355.02 1024.43 1352.61 1025.56 1350.19L1023.74 1349.35C1024.87 1346.94 1025.98 1344.52 1027.07 1342.09L1028.9 1342.92C1030 1340.48 1031.08 1338.04 1032.16 1335.59L1030.33 1334.79C1031.4 1332.35 1032.45 1329.9 1033.5 1327.44L1035.34 1328.22C1036.38 1325.77 1037.4 1323.32 1038.42 1320.85L1036.57 1320.09C1037.58 1317.63 1038.58 1315.17 1039.56 1312.69L1041.42 1313.43C1042.41 1310.95 1043.38 1308.46 1044.34 1305.96L1042.47 1305.25C1043.43 1302.76 1044.37 1300.26 1045.3 1297.76L1047.17 1298.46C1048.1 1295.96 1049.01 1293.46 1049.91 1290.95L1048.03 1290.27C1048.92 1287.77 1049.8 1285.26 1050.67 1282.74L1052.56 1283.39C1053.43 1280.87 1054.29 1278.34 1055.13 1275.8L1053.23 1275.17C1054.06 1272.64 1054.89 1270.1 1055.7 1267.56L1057.6 1268.17C1058.41 1265.63 1059.2 1263.08 1059.98 1260.53L1058.06 1259.95C1058.84 1257.41 1059.6 1254.86 1060.34 1252.3L1062.26 1252.86C1063.01 1250.3 1063.74 1247.73 1064.45 1245.16L1062.53 1244.62C1063.24 1242.05 1063.94 1239.48 1064.62 1236.9L1066.55 1237.41C1067.24 1234.84 1067.9 1232.25 1068.55 1229.67L1066.61 1229.18C1067.26 1226.6 1067.89 1224.02 1068.51 1221.43L1070.45 1221.89C1071.07 1219.3 1071.67 1216.7 1072.26 1214.09L1070.31 1213.65C1070.89 1211.05 1071.46 1208.45 1072.01 1205.84L1073.97 1206.25C1074.52 1203.64 1075.05 1201.03 1075.57 1198.41L1073.61 1198.02C1074.13 1195.41 1074.62 1192.8 1075.11 1190.19L1077.07 1190.55C1077.56 1187.93 1078.02 1185.3 1078.47 1182.67L1076.5 1182.33C1076.95 1179.7 1077.38 1177.08 1077.8 1174.44L1079.77 1174.75C1080.19 1172.12 1080.58 1169.48 1080.96 1166.83L1078.98 1166.55C1079.36 1163.92 1079.72 1161.28 1080.06 1158.65L1082.05 1158.91C1082.39 1156.26 1082.72 1153.61 1083.03 1150.96L1081.04 1150.73C1081.35 1148.09 1081.64 1145.44 1081.91 1142.79L1083.9 1142.99C1084.17 1140.33 1084.42 1137.67 1084.66 1135.01L1082.67 1134.83C1082.9 1132.19 1083.12 1129.54 1083.31 1126.89L1085.31 1127.04C1085.51 1124.38 1085.69 1121.72 1085.85 1119.06L1083.85 1118.94C1084.01 1116.28 1084.15 1113.62 1084.28 1110.96L1086.28 1111.05C1086.4 1108.38 1086.5 1105.71 1086.59 1103.04L1084.59 1102.97C1084.68 1100.32 1084.74 1097.66 1084.79 1095.01L1086.79 1095.04C1086.84 1092.38 1086.87 1089.71 1086.88 1087.04L1084.88 1087.04C1084.89 1084.38 1084.88 1081.72 1084.85 1079.06L1086.85 1079.03C1086.82 1076.36 1086.77 1073.69 1086.7 1071.01L1084.7 1071.06C1084.68 1070.31 1084.66 1069.55 1084.64 1068.8C1084.62 1068.22 1084.6 1067.64 1084.58 1067.06C1084.54 1065.67 1084.49 1064.28 1084.43 1062.91L1086.43 1062.83C1086.32 1060.06 1086.18 1057.34 1086.03 1054.64L1084.03 1054.76C1083.88 1052.07 1083.71 1049.43 1083.52 1046.81L1085.51 1046.67C1085.32 1044.04 1085.11 1041.45 1084.88 1038.89L1082.88 1039.07C1082.64 1036.42 1082.38 1033.81 1082.1 1031.23L1084.09 1031.01C1083.79 1028.26 1083.46 1025.55 1083.11 1022.88L1081.13 1023.13C1080.79 1020.48 1080.42 1017.86 1080.02 1015.28L1082 1014.98C1081.61 1012.38 1081.19 1009.83 1080.75 1007.31L1078.78 1007.65C1078.31 1004.98 1077.82 1002.35 1077.3 999.766L1079.26 999.373C1078.72 996.688 1078.16 994.048 1077.56 991.453L1075.61 991.898C1075.02 989.32 1074.41 986.787 1073.77 984.297L1075.7 983.798C1075.04 981.221 1074.35 978.689 1073.63 976.203L1071.71 976.759C1070.95 974.131 1070.15 971.554 1069.33 969.027L1071.23 968.408C1070.41 965.86 1069.55 963.361 1068.66 960.911L1066.78 961.594C1065.88 959.123 1064.95 956.703 1063.99 954.332L1065.85 953.582C1064.82 951.034 1063.75 948.541 1062.65 946.101L1060.83 946.923C1059.74 944.508 1058.62 942.146 1057.46 939.836L1059.25 938.942C1058.06 936.552 1056.82 934.216 1055.56 931.934L1053.81 932.903C1052.51 930.551 1051.16 928.256 1049.79 926.016L1051.49 924.969C1050.1 922.703 1048.67 920.493 1047.2 918.337L1045.55 919.461C1044.05 917.26 1042.51 915.116 1040.94 913.026L1042.54 911.823C1040.93 909.677 1039.27 907.588 1037.58 905.553L1036.04 906.832C1034.37 904.814 1032.65 902.851 1030.9 900.939L1032.38 899.588C1030.56 897.607 1028.7 895.681 1026.81 893.808L1025.4 895.23C1023.53 893.379 1021.63 891.581 1019.68 889.832L1021.02 888.345C1019.04 886.565 1017.02 884.836 1014.96 883.155L1013.7 884.704C1011.66 883.037 1009.59 881.419 1007.47 879.847L1008.67 878.243C1006.54 876.655 1004.37 875.114 1002.17 873.616L1001.04 875.27C998.874 873.796 996.67 872.365 994.433 870.974L995.489 869.276C993.229 867.871 990.935 866.507 988.609 865.182L987.619 866.92C985.344 865.624 983.037 864.365 980.698 863.142L981.626 861.37C979.278 860.141 976.9 858.948 974.492 857.787L973.623 859.589C971.247 858.444 968.841 857.331 966.405 856.248L967.218 854.42C964.814 853.351 962.381 852.31 959.923 851.296L959.16 853.146C956.718 852.139 954.248 851.158 951.752 850.203L952.467 848.335C950.002 847.391 947.512 846.471 944.997 845.573L944.325 847.457C941.851 846.574 939.354 845.711 936.833 844.869L937.467 842.972C934.934 842.125 932.378 841.298 929.8 840.488L929.201 842.397C926.709 841.614 924.197 840.849 921.663 840.098L922.232 838.18C919.691 837.427 917.131 836.689 914.551 835.963L914.01 837.889C911.456 837.171 908.883 836.466 906.291 835.772L906.808 833.84C904.269 833.161 901.712 832.492 899.139 831.832L898.642 833.769C896.075 833.111 893.49 832.462 890.889 831.82L891.368 829.879C888.792 829.243 886.2 828.615 883.592 827.992L883.128 829.938C880.569 829.327 877.995 828.722 875.407 828.121L875.86 826.173C873.268 825.571 870.662 824.973 868.043 824.378L867.6 826.329C865.018 825.742 862.422 825.159 859.814 824.576L860.25 822.624C857.674 822.048 855.087 821.474 852.487 820.9L852.056 822.853C850.789 822.573 849.519 822.293 848.247 822.013C846.909 821.719 845.569 821.424 844.226 821.129L844.655 819.176C842.96 818.803 841.26 818.43 839.556 818.056C838.656 817.859 837.756 817.661 836.854 817.464L836.425 819.417C833.846 818.851 831.255 818.282 828.655 817.709L829.086 815.756C826.487 815.183 823.878 814.607 821.26 814.025L820.826 815.977C818.233 815.401 815.631 814.819 813.019 814.231L813.459 812.28C810.882 811.7 808.297 811.113 805.705 810.52L805.258 812.469C802.663 811.875 800.06 811.273 797.449 810.663L797.904 808.715C795.313 808.11 792.716 807.496 790.111 806.872L789.645 808.817C787.074 808.202 784.496 807.576 781.911 806.941L782.389 804.999C779.809 804.364 777.222 803.719 774.63 803.063L774.139 805.002C771.549 804.346 768.952 803.678 766.35 802.998L766.856 801.063C764.304 800.396 761.746 799.717 759.184 799.024L758.662 800.955C756.095 800.261 753.523 799.554 750.946 798.832L751.486 796.906C748.915 796.187 746.34 795.453 743.762 794.703L743.203 796.624C740.66 795.885 738.114 795.131 735.563 794.362L736.141 792.447C733.605 791.681 731.065 790.9 728.522 790.103L727.923 792.011C725.374 791.211 722.821 790.394 720.265 789.56L720.886 787.658C718.365 786.835 715.841 785.994 713.314 785.135L712.671 787.029C710.16 786.175 707.647 785.303 705.132 784.413L705.8 782.527C703.293 781.64 700.785 780.733 698.275 779.807L697.583 781.683C695.072 780.756 692.56 779.81 690.047 778.843L690.766 776.976C688.306 776.029 685.845 775.062 683.383 774.075L682.639 775.931C680.168 774.941 677.697 773.929 675.226 772.895L675.998 771.05C673.536 770.021 671.074 768.969 668.612 767.896L667.812 769.729C665.379 768.668 662.946 767.585 660.514 766.479L661.341 764.659C658.936 763.565 656.531 762.45 654.127 761.311L653.27 763.119C650.857 761.975 648.444 760.809 646.032 759.619L646.917 757.825C644.524 756.644 642.132 755.439 639.742 754.21L638.827 755.988C636.479 754.781 634.133 753.55 631.789 752.295L632.733 750.532C630.399 749.282 628.066 748.007 625.735 746.708L624.761 748.455C622.421 747.151 620.082 745.821 617.746 744.466L618.749 742.736C616.458 741.406 614.169 740.052 611.882 738.672L610.849 740.384C608.586 739.019 606.326 737.628 604.069 736.212L605.132 734.518C602.884 733.107 600.639 731.672 598.397 730.21L597.305 731.885C595.053 730.417 592.805 728.922 590.559 727.4L591.682 725.744C589.504 724.269 587.33 722.767 585.16 721.24L584.009 722.875C581.846 721.354 579.688 719.806 577.532 718.232L578.712 716.617C576.566 715.05 574.424 713.457 572.286 711.836L571.078 713.43C568.93 711.802 566.786 710.148 564.646 708.465L565.882 706.893C563.826 705.276 561.773 703.633 559.724 701.964L558.461 703.514C556.413 701.846 554.368 700.151 552.328 698.429L553.618 696.901C551.587 695.186 549.56 693.446 547.538 691.678L546.221 693.183C544.19 691.408 542.164 689.605 540.141 687.774L541.484 686.291C539.546 684.537 537.613 682.758 535.685 680.952L534.318 682.411C532.394 680.61 530.475 678.783 528.56 676.929L529.951 675.492C528.045 673.647 526.143 671.774 524.246 669.876L522.831 671.289C520.926 669.382 519.026 667.449 517.131 665.488L518.569 664.098C516.741 662.206 514.917 660.288 513.098 658.344L511.638 659.711C509.846 657.796 508.058 655.856 506.276 653.89L507.758 652.547C505.983 650.589 504.212 648.605 502.447 646.596L500.944 647.916C499.172 645.899 497.405 643.856 495.643 641.787L497.166 640.491C495.429 638.451 493.697 636.385 491.971 634.293L490.428 635.566C488.772 633.559 487.12 631.527 485.473 629.472L487.034 628.221C485.393 626.173 483.757 624.101 482.126 622.004L480.547 623.232C478.911 621.128 477.279 618.999 475.653 616.845L477.249 615.64C475.629 613.493 474.013 611.322 472.404 609.125L470.79 610.308C469.982 609.205 469.176 608.097 468.371 606.981L468.37 606.981C467.591 605.901 466.809 604.831 466.024 603.771L467.632 602.581C466.053 600.448 464.464 598.354 462.864 596.3L461.286 597.529C459.69 595.479 458.084 593.468 456.469 591.497L458.016 590.229C456.321 588.161 454.617 586.136 452.903 584.153L451.389 585.461C449.687 583.491 447.975 581.564 446.255 579.679L447.733 578.331C445.937 576.363 444.132 574.44 442.319 572.562L440.88 573.951C439.064 572.069 437.239 570.233 435.407 568.441L436.805 567.011C434.909 565.158 433.005 563.352 431.094 561.594L429.74 563.065C427.81 561.289 425.873 559.562 423.93 557.883L425.238 556.369C423.237 554.64 421.229 552.96 419.215 551.331L417.957 552.886C415.917 551.235 413.871 549.635 411.82 548.087L413.025 546.491C410.915 544.897 408.799 543.357 406.679 541.87L405.531 543.507C403.384 542.001 401.234 540.55 399.082 539.153L400.171 537.476C397.949 536.034 395.724 534.649 393.498 533.321L392.473 535.038C390.228 533.699 387.982 532.417 385.736 531.193L386.693 529.437C384.361 528.166 382.03 526.957 379.699 525.807L378.815 527.601C376.481 526.449 374.149 525.359 371.82 524.329L372.629 522.5C370.193 521.422 367.76 520.41 365.332 519.462L364.604 521.325C362.179 520.377 359.759 519.495 357.346 518.677L357.989 516.783C355.474 515.93 352.967 515.145 350.469 514.428L349.917 516.351C347.404 515.629 344.901 514.977 342.411 514.394L342.867 512.446C340.303 511.845 337.751 511.315 335.213 510.855L334.856 512.823C332.274 512.355 329.708 511.961 327.16 511.639L327.411 509.655C324.79 509.324 322.188 509.068 319.606 508.886L319.466 510.881C316.872 510.699 314.299 510.592 311.752 510.56L311.777 508.56C309.124 508.526 306.497 508.573 303.898 508.697L303.993 510.694C301.396 510.818 298.829 511.022 296.295 511.302L296.075 509.315C293.458 509.604 290.874 509.976 288.328 510.427L288.677 512.396C286.112 512.851 283.585 513.387 281.101 514.004L280.619 512.063C278.057 512.7 275.537 513.42 273.065 514.224L273.683 516.126C271.224 516.924 268.813 517.806 266.454 518.768L265.698 516.916C263.261 517.91 260.876 518.989 258.549 520.15L259.442 521.94C257.131 523.093 254.877 524.33 252.686 525.648L251.655 523.934C249.403 525.288 247.214 526.726 245.093 528.247L246.258 529.872C244.171 531.368 242.15 532.945 240.201 534.601L238.906 533.077C236.909 534.773 234.985 536.55 233.137 538.407L234.555 539.818C232.75 541.631 231.021 543.521 229.37 545.487L227.838 544.2C226.161 546.197 224.564 548.27 223.05 550.416L224.685 551.569C223.216 553.652 221.828 555.806 220.525 558.029L218.799 557.017C217.482 559.265 216.248 561.581 215.104 563.965L216.907 564.831C215.808 567.118 214.793 569.469 213.864 571.882L211.998 571.163C211.069 573.576 210.225 576.049 209.47 578.58L211.387 579.152C210.66 581.586 210.017 584.077 209.461 586.622L207.507 586.195C206.954 588.726 206.485 591.309 206.103 593.943L208.082 594.23C207.72 596.726 207.438 599.27 207.238 601.86L205.244 601.707C205.046 604.284 204.927 606.904 204.892 609.566L206.892 609.593C206.858 612.136 206.902 614.72 207.024 617.343L205.026 617.437C205.146 619.997 205.34 622.592 205.61 625.223L207.6 625.018C207.862 627.567 208.197 630.149 208.607 632.765L206.631 633.075C207.027 635.601 207.491 638.155 208.026 640.739L209.985 640.333C210.503 642.834 211.088 645.363 211.742 647.92L209.804 648.416C210.441 650.907 211.143 653.424 211.91 655.965L213.825 655.386C214.204 656.643 214.6 657.906 215.013 659.175C215.419 660.423 215.84 661.668 216.273 662.909L214.385 663.569C215.262 666.077 216.192 668.569 217.172 671.048L219.032 670.314C219.997 672.756 221.011 675.187 222.069 677.608L220.236 678.409C221.298 680.838 222.404 683.255 223.549 685.662L225.355 684.803C226.486 687.181 227.657 689.551 228.863 691.913L227.081 692.822C228.286 695.183 229.525 697.536 230.795 699.882L232.554 698.931C233.807 701.248 235.091 703.559 236.401 705.867L234.662 706.854C235.971 709.162 237.306 711.464 238.662 713.764L240.385 712.748C241.727 715.024 243.091 717.297 244.473 719.57L242.764 720.609C244.141 722.874 245.535 725.137 246.941 727.4L248.64 726.344C250.039 728.594 251.45 730.844 252.872 733.097L251.181 734.165C252.598 736.409 254.023 738.655 255.454 740.904L257.142 739.83C258.222 741.528 259.305 743.227 260.39 744.929L261.427 746.555L259.74 747.63C261.168 749.87 262.598 752.114 264.025 754.364L265.714 753.293C267.138 755.538 268.561 757.79 269.978 760.049L268.284 761.112C269.695 763.362 271.101 765.619 272.498 767.885L274.2 766.836C275.598 769.104 276.988 771.381 278.364 773.669L276.65 774.7C278.021 776.978 279.378 779.265 280.718 781.563L282.446 780.555C283.791 782.86 285.119 785.177 286.427 787.507L284.683 788.486C285.985 790.805 287.267 793.135 288.525 795.48L290.287 794.534C291.551 796.889 292.791 799.258 294.003 801.644L292.221 802.55C293.425 804.92 294.603 807.304 295.749 809.704L297.554 808.843C298.707 811.257 299.829 813.689 300.917 816.14L299.089 816.952C300.167 819.379 301.21 821.825 302.216 824.289L304.068 823.533C305.078 826.011 306.052 828.508 306.984 831.027L305.108 831.721C306.03 834.212 306.911 836.724 307.747 839.257L309.647 838.63C310.485 841.169 311.279 843.729 312.025 846.313L310.104 846.868C310.839 849.413 311.527 851.98 312.165 854.571L314.107 854.093C314.748 856.695 315.339 859.321 315.877 861.972L313.917 862.369C314.441 864.954 314.913 867.563 315.331 870.196L317.307 869.883C317.726 872.523 318.091 875.188 318.398 877.88L316.411 878.107C316.711 880.73 316.956 883.378 317.142 886.051L319.137 885.912C319.322 888.564 319.451 891.242 319.52 893.946L317.521 893.998C317.589 896.648 317.599 899.324 317.549 902.027L319.549 902.064C319.5 904.703 319.394 907.368 319.229 910.058L317.233 909.936C317.071 912.569 316.852 915.228 316.573 917.913L318.563 918.12C318.289 920.752 317.959 923.408 317.57 926.09L315.591 925.802C315.213 928.402 314.78 931.026 314.289 933.675L316.255 934.04C315.772 936.646 315.233 939.275 314.637 941.929L312.685 941.49C312.111 944.045 311.483 946.623 310.8 949.226L312.734 949.734C312.061 952.296 311.335 954.881 310.554 957.49L308.638 956.916C307.887 959.423 307.085 961.953 306.23 964.505L308.126 965.14C307.287 967.645 306.398 970.172 305.457 972.719L303.581 972.027C302.671 974.491 301.712 976.977 300.702 979.484L302.558 980.231C301.577 982.667 300.55 985.123 299.475 987.599L297.641 986.802C296.584 989.236 295.48 991.689 294.329 994.162L296.143 995.006C295.045 997.365 293.904 999.742 292.719 1002.14L290.926 1001.25C289.749 1003.63 288.527 1006.03 287.26 1008.45L289.032 1009.38C287.821 1011.69 286.57 1014.02 285.277 1016.37L283.525 1015.4C282.259 1017.7 280.953 1020.02 279.607 1022.35L281.339 1023.35C280.003 1025.66 278.627 1027.99 277.211 1030.34L275.499 1029.3C274.165 1031.52 272.794 1033.74 271.387 1035.98L273.08 1037.05C271.667 1039.3 270.216 1041.57 268.728 1043.85L267.053 1042.76C265.614 1044.96 264.141 1047.18 262.631 1049.42L264.289 1050.54C262.83 1052.7 261.339 1054.87 259.814 1057.06L258.173 1055.92C256.653 1058.1 255.1 1060.29 253.513 1062.5L255.136 1063.67C254.34 1064.78 253.535 1065.89 252.721 1067M170.106 1609.84L251.106 1065.82M170.106 1609.84C168.839 1609.39 167.588 1608.93 166.356 1608.46L165.638 1610.33C163.136 1609.36 160.702 1608.34 158.337 1607.27L159.166 1605.45C156.784 1604.36 154.473 1603.22 152.232 1602.01L151.287 1603.78C148.929 1602.51 146.646 1601.18 144.437 1599.8L145.501 1598.1C143.294 1596.72 141.163 1595.27 139.106 1593.76L137.923 1595.37C135.778 1593.8 133.711 1592.16 131.72 1590.46L133.019 1588.94C131.045 1587.26 129.148 1585.51 127.327 1583.7L125.918 1585.12C124.042 1583.26 122.244 1581.34 120.523 1579.35L122.034 1578.04C120.343 1576.09 118.726 1574.08 117.184 1572.01L115.58 1573.2C114.007 1571.09 112.509 1568.92 111.085 1566.69L112.77 1565.61C111.386 1563.45 110.072 1561.22 108.827 1558.95L107.073 1559.91C105.81 1557.6 104.619 1555.24 103.496 1552.83L105.309 1551.98C104.228 1549.66 103.212 1547.29 102.258 1544.87L100.398 1545.6C99.4328 1543.15 98.5319 1540.66 97.6936 1538.12L99.5929 1537.49C98.7921 1535.06 98.0488 1532.59 97.3618 1530.08L95.4327 1530.61C94.738 1528.07 94.1005 1525.49 93.519 1522.87L95.4714 1522.44C94.9172 1519.94 94.4141 1517.41 93.961 1514.84L91.9914 1515.19C91.5343 1512.6 91.1278 1509.97 90.7707 1507.31L92.7529 1507.05C92.4115 1504.5 92.1155 1501.93 91.8642 1499.33L89.8734 1499.52C89.6211 1496.91 89.4133 1494.27 89.249 1491.6L91.2452 1491.47C91.0868 1488.9 90.9692 1486.3 90.8914 1483.68L88.8923 1483.73C88.8149 1481.12 88.7766 1478.48 88.7767 1475.82L90.7767 1475.82C90.7768 1473.22 90.8136 1470.6 90.8863 1467.96L88.8871 1467.9C88.9588 1465.3 89.0651 1462.67 89.2052 1460.03L91.2024 1460.14C91.3411 1457.52 91.5132 1454.88 91.7178 1452.23L89.7238 1452.08C89.9231 1449.49 90.1531 1446.89 90.4132 1444.27L92.4034 1444.47C92.662 1441.86 92.9504 1439.24 93.268 1436.6L91.2823 1436.36C91.5945 1433.77 91.9345 1431.17 92.3018 1428.55L94.2824 1428.83C94.6442 1426.25 95.0325 1423.66 95.4468 1421.05L93.4716 1420.74C93.8856 1418.13 94.3254 1415.52 94.7903 1412.89L96.7597 1413.24C97.2114 1410.69 97.687 1408.13 98.1858 1405.55L96.2223 1405.17C96.7231 1402.59 97.2473 1399.99 97.7941 1397.39L99.7514 1397.8C100.288 1395.25 100.846 1392.68 101.426 1390.11L99.4751 1389.67C100.051 1387.12 100.648 1384.56 101.265 1381.99L103.209 1382.46C103.824 1379.9 104.46 1377.33 105.115 1374.76L103.176 1374.26C103.82 1371.73 104.483 1369.2 105.164 1366.66L107.096 1367.17C107.774 1364.65 108.471 1362.11 109.185 1359.57L107.26 1359.03C107.974 1356.49 108.705 1353.95 109.454 1351.4L111.373 1351.97C112.109 1349.46 112.861 1346.96 113.63 1344.45L111.718 1343.86C112.489 1341.34 113.276 1338.82 114.079 1336.3L115.985 1336.91C116.781 1334.41 117.592 1331.9 118.418 1329.4L116.518 1328.77C117.34 1326.28 118.177 1323.79 119.028 1321.29L120.921 1321.94C121.769 1319.45 122.632 1316.96 123.509 1314.47L121.623 1313.8C122.496 1311.32 123.382 1308.84 124.282 1306.36L126.162 1307.04C127.056 1304.58 127.963 1302.11 128.883 1299.65L127.01 1298.95C127.932 1296.48 128.866 1294.01 129.813 1291.54L131.681 1292.25C132.62 1289.8 133.571 1287.36 134.534 1284.91L132.673 1284.18C133.637 1281.73 134.612 1279.28 135.598 1276.83L137.453 1277.58C138.438 1275.14 139.433 1272.7 140.439 1270.27L138.59 1269.5C139.596 1267.07 140.611 1264.64 141.637 1262.21L143.479 1262.99C144.503 1260.57 145.536 1258.15 146.58 1255.73L144.744 1254.94C145.789 1252.52 146.844 1250.11 147.909 1247.69L149.739 1248.5C150.802 1246.09 151.874 1243.69 152.955 1241.29L151.131 1240.47C152.215 1238.07 153.306 1235.67 154.407 1233.27L156.224 1234.11C157.323 1231.72 158.431 1229.33 159.547 1226.96L157.736 1226.11C158.858 1223.71 159.987 1221.33 161.125 1218.95L162.929 1219.81C164.064 1217.44 165.207 1215.07 166.356 1212.71L164.558 1211.84C165.714 1209.46 166.877 1207.1 168.047 1204.74L169.838 1205.63C171.012 1203.27 172.192 1200.91 173.379 1198.56L171.594 1197.66C172.782 1195.31 173.977 1192.96 175.178 1190.63L176.957 1191.54C178.164 1189.2 179.378 1186.86 180.596 1184.53L178.825 1183.6C180.052 1181.26 181.286 1178.92 182.524 1176.6L184.289 1177.54C185.525 1175.22 186.766 1172.91 188.011 1170.62L186.253 1169.66C187.518 1167.33 188.788 1165.01 190.061 1162.7L191.812 1163.67C193.089 1161.35 194.369 1159.05 195.652 1156.77L193.908 1155.79C195.196 1153.5 196.487 1151.22 197.781 1148.95L199.518 1149.94C200.838 1147.63 202.16 1145.34 203.486 1143.06L201.756 1142.05C203.084 1139.77 204.415 1137.5 205.747 1135.24L207.469 1136.26C208.813 1133.99 210.158 1131.73 211.506 1129.5L209.792 1128.46C211.166 1126.18 212.541 1123.92 213.917 1121.67L215.622 1122.72C216.996 1120.48 218.37 1118.26 219.745 1116.05L218.048 1114.99C219.461 1112.73 220.874 1110.49 222.287 1108.26L223.975 1109.34C225.396 1107.1 226.817 1104.89 228.236 1102.7L226.558 1101.61C227.995 1099.39 229.431 1097.2 230.865 1095.03L232.533 1096.13C234.007 1093.9 235.479 1091.7 236.948 1089.52L235.29 1088.4C236.763 1086.22 238.233 1084.06 239.701 1081.93M170.106 1609.84L239.701 1081.93M252.721 1067L251.106 1065.82M252.721 1067C252.721 1067 252.721 1067 252.722 1067L251.106 1065.82M252.721 1067C251.967 1068.04 251.211 1069.08 250.454 1070.13L248.831 1068.96M251.106 1065.82C250.349 1066.86 249.59 1067.91 248.831 1068.96M248.831 1068.96C247.312 1071.07 245.788 1073.21 244.26 1075.38L245.895 1076.53C244.384 1078.68 242.868 1080.86 241.348 1083.06L239.701 1081.93M248.831 1068.96L239.701 1081.93" stroke="white" stroke-width="4" stroke-linejoin="round" stroke-dasharray="8 8"/>
</g>
</g>
<defs>
<linearGradient id="paint0_linear" x1="1939.2" y1="392.753" x2="-382.574" y2="1381.52" gradientUnits="userSpaceOnUse">
<stop stop-color="#90C8FD"/>
<stop offset="0.729167" stop-color="#8782F7"/>
</linearGradient>
<linearGradient id="paint1_linear" x1="917.284" y1="139.812" x2="126.39" y2="1916.84" gradientUnits="userSpaceOnUse">
<stop offset="0.213542" stop-color="white"/>
<stop offset="1" stop-color="white" stop-opacity="0"/>
</linearGradient>
<clipPath id="clip0">
<rect width="1395.96" height="1317.85" fill="white" transform="translate(-391.967 891.223) rotate(-33.9803)"/>
</clipPath>
<clipPath id="clip1">
<rect width="1205.49" height="1138.04" fill="white" transform="translate(1891.49 -267.149) rotate(130.625)"/>
</clipPath>
<clipPath id="clip2">
<rect width="1205.49" height="1138.04" fill="white" transform="translate(392.996 1934.45) rotate(-127.524)"/>
</clipPath>
</defs>
</svg>
